<?xml version="1.0" standalone="no"?>
<!DOCTYPE svg PUBLIC "-//W3C//DTD SVG 1.1//EN" "http://www.w3.org/Graphics/SVG/1.1/DTD/svg11.dtd" >
<svg xmlns="http://www.w3.org/2000/svg">
<metadata></metadata>
<defs>
<font id="ciclegordita" horiz-adv-x="596" >
<font-face units-per-em="1000" ascent="800" descent="-200" />
<missing-glyph horiz-adv-x="257" />
<glyph unicode="&#xd;" horiz-adv-x="257" />
<glyph unicode=" "  horiz-adv-x="257" />
<glyph unicode="&#x09;" horiz-adv-x="257" />
<glyph unicode="&#xa0;" horiz-adv-x="257" />
<glyph unicode="!" horiz-adv-x="176" d="M116 30q0 -15 -10.5 -27t-26.5 -12q-17 0 -28 12t-11 27q0 17 11 27.5t28 10.5q18 0 27 -10.5t10 -26.5v-1zM46 681h65v-588h-65v588z" />
<glyph unicode="&#x22;" horiz-adv-x="217" d="M21 681h76l9 -77l-47 -102l-27 27zM91 681h77l8 -77l-47 -102l-27 27z" />
<glyph unicode="#" horiz-adv-x="714" d="M68 281h95q6 18 14.5 39t14.5 40q4 8 4.5 10.5t4.5 12.5h-194l59 73h160q10 26 19.5 51t19.5 50q7 19 15.5 40t15.5 39h75l-67 -180h191q11 31 23.5 63t23.5 62q5 13 10.5 28t10.5 27h76l-67 -180h122l-59 -73h-87q-3 -9 -6.5 -17.5t-6.5 -17.5q-8 -20 -14 -33t-13 -34 h187l-61 -74h-152l-18 -48t-18 -49q-9 -26 -19.5 -56t-19.5 -54h-78l77 207h-193q-11 -32 -22.5 -65t-24.5 -67v1q-6 -18 -14 -38.5t-14 -37.5h-77l77 207h-130zM240 281h193q4 11 7.5 23t8.5 24q6 14 11 26.5t10 28.5h-191z" />
<glyph unicode="$" horiz-adv-x="466" d="M190 606q-40 -13 -65.5 -42t-25.5 -67t24 -69.5t67 -45.5v224zM262 68q41 9 67.5 37.5t26.5 69.5q0 40 -26.5 73t-67.5 46v-226zM262 724v-40q51 -3 93 -27.5t76 -62.5l-57 -46q-23 26 -51.5 43.5t-60.5 21.5v-248q37 -9 68 -26t53 -41.5t34.5 -55t12.5 -64.5 q0 -33 -13.5 -63.5t-36 -54.5t-53.5 -41t-65 -24v-57h-72v55q-52 6 -96.5 34.5t-73.5 70.5l57 46q20 -28 49 -51.5t64 -27.5v241q-38 8 -68.5 25.5t-52.5 42t-33.5 55t-11.5 65.5q0 34 12.5 64.5t35 54.5t53 41t65.5 25v45h72z" />
<glyph unicode="&#x26;" horiz-adv-x="597" d="M241 0q-45 0 -83.5 15.5t-66.5 42t-43.5 61.5t-15.5 74q0 56 41.5 107t115.5 88q1 0 2 0.5t3 0.5q-1 1 -1 2l1 -1q-1 1 -1 1.5t-1 1.5q-26 27 -41 48t-22.5 38t-10 31t-2.5 28q0 28 11.5 54.5t32.5 47t51 33t67 12.5q34 0 62 -11.5t48.5 -30.5t31.5 -45t11 -54 q0 -46 -30 -85t-96 -75l-3 -2q20 -24 36.5 -46.5t36.5 -46.5q14 -17 26.5 -33.5t26.5 -33.5q1 2 1.5 2.5t1.5 2.5q8 16 16 37.5t16 53.5l80 -16q-15 -45 -30 -82t-31 -62q0 -2 -1 -6q0 -1 -0.5 -1t-0.5 -1v-2q7 -11 12 -19t11.5 -15.5t15.5 -15.5t23 -20v-84 q-41 26 -60.5 44.5t-36.5 39.5q-6 8 -7 9l-4 6l-4 -4q-40 -44 -87 -67t-102 -22zM462 138l19 2l-1 5h-20zM353 543q0 33 -22 57t-58 24q-32 0 -56 -23t-24 -55q2 -36 32 -71l39 -45q1 0 1.5 0.5t1.5 0.5h-1q51 29 69 54t18 58zM230 339q-63 -36 -89.5 -70t-26.5 -71 q0 -24 9.5 -47t26 -42t40 -30.5t51.5 -11.5q19 0 39 6t39 17t35.5 26t28.5 32l2 2q-24 29 -46 58t-45 57q-17 21 -30.5 37.5t-30.5 38.5z" />
<glyph unicode="'" horiz-adv-x="121" d="M29 675l77 6l9 -80l-86 -92l-25 25l34 70z" />
<glyph unicode="(" horiz-adv-x="260" d="M189 620q-18 -23 -33 -57t-25.5 -77.5t-16 -94t-5.5 -104.5q0 -60 7 -114t19.5 -99.5t30 -80t38.5 -54.5l-42 -67q-29 28 -52.5 71t-41 97t-27 116.5t-9.5 130.5q0 65 9.5 126.5t26 115t39.5 97t51 72.5z" />
<glyph unicode=")" horiz-adv-x="246" d="M82 698q28 -30 51.5 -74t41 -97t27 -114.5t9.5 -125.5q0 -68 -10 -130.5t-27 -116.5t-41 -96.5t-52 -70.5l-42 67q21 20 38.5 54.5t29.5 79.5t19 99t7 114q0 54 -5.5 104.5t-16 94t-25 77.5t-33.5 57z" />
<glyph unicode="*" horiz-adv-x="471" d="M265 363h-71v92q-15 -15 -33.5 -33t-30.5 -31l-52 50l66 65h-91v71h91l-65 65l51 51l64 -64v91h71v-91l65 64l51 -50l-64 -65h91v-72h-93q5 -6 10.5 -10.5t11.5 -10.5l44 -44l-50 -50l-66 66v-94z" />
<glyph unicode="+" horiz-adv-x="452" d="M257 114h-72v142h-141v72h141v142h72v-142h142v-72h-142v-142z" />
<glyph unicode="," horiz-adv-x="173" d="M59 93h77v-84l-96 -83l-20 32l39 63v72z" />
<glyph unicode="-" horiz-adv-x="421" d="M30 256v72h356v-72h-356z" />
<glyph unicode="." horiz-adv-x="145" d="M26 93h93v-93h-93v93z" />
<glyph unicode="/" horiz-adv-x="378" d="M102 0h-76l249 681h76z" />
<glyph unicode="0" horiz-adv-x="586" d="M106 338q0 -57 14 -107t39 -87t58 -58.5t71 -21.5t71 21.5t57.5 58.5t38.5 87t14 107t-14 107t-38.5 87t-57.5 58.5t-71 21.5t-71 -21.5t-58 -58.5t-39 -87t-14 -107zM33 338q0 72 20.5 135t55 110.5t81 74.5t98.5 27t98 -27t80.5 -74.5t54 -110.5t19.5 -135 q0 -71 -19.5 -134.5t-54 -110.5t-80.5 -74.5t-98 -27.5t-98.5 27.5t-81 74.5t-55 110.5t-20.5 134.5z" />
<glyph unicode="1" horiz-adv-x="263" d="M15 568l136 113h61v-681h-72v579q-16 -14 -32 -26.5t-32 -25.5q-2 -1 -5 -4l-5 -5z" />
<glyph unicode="2" horiz-adv-x="475" d="M151 71h279v-71h-385v62l277 310q17 19 27 43.5t10 52.5q0 30 -11.5 56.5t-32 46t-47.5 30.5t-58 11q-29 0 -58.5 -13.5t-55.5 -38.5l-52 52q36 32 78.5 52.5t87.5 20.5q46 0 86 -17.5t70 -47t47 -69t17 -83.5q0 -43 -16.5 -80.5t-42.5 -66.5z" />
<glyph unicode="3" horiz-adv-x="431" d="M59 122q24 -26 57 -43.5t68 -17.5q29 0 55 10t45.5 27t30.5 40.5t11 49.5q0 21 -11.5 41t-30 36.5t-42.5 28.5t-48 17h-101v72h103q28 1 52 11t42 25.5t28 35.5t10 42q0 24 -11 45.5t-30.5 37t-45 24.5t-54.5 9q-35 0 -68.5 -15.5t-59.5 -44.5l-49 53q35 38 81 58.5 t96 20.5q44 0 83.5 -14.5t69 -40t46.5 -60t17 -73.5q0 -48 -26 -87.5t-68 -64.5q41 -27 65 -66.5t24 -90.5q0 -42 -16.5 -78t-45.5 -63t-68 -42.5t-84 -15.5q-51 0 -97 23t-78 60z" />
<glyph unicode="4" horiz-adv-x="473" d="M26 238l2 61l224 387l63 -34l-198 -342h147v144h73v-144h92v-72h-92v-238h-73v238h-238z" />
<glyph unicode="5" horiz-adv-x="504" d="M37 330l25 351h377v-73h-308q-2 -18 -3.5 -34t-3.5 -33q-1 -12 -2 -21.5t-1.5 -18.5t-1.5 -19t-3 -24q26 19 58 29t67 10q47 0 88 -19.5t71 -53t47.5 -78.5t17.5 -96q0 -52 -17.5 -97.5t-47.5 -79.5t-71 -53.5t-88 -19.5q-55 0 -104.5 29.5t-81.5 80.5l52 52 q25 -42 60 -66.5t74 -24.5q31 0 59 14t48.5 38.5t32.5 57t12 69.5t-12 69t-32.5 56t-48.5 37.5t-59 13.5q-44 0 -80.5 -26t-56.5 -70h-67z" />
<glyph unicode="6" horiz-adv-x="506" d="M468 201q0 -44 -16.5 -82.5t-45 -66.5t-67 -44t-83.5 -16q-42 0 -79.5 15.5t-65.5 43.5t-45 65.5t-19 81.5v-1q-3 31 -3.5 65t-0.5 66v20q0 43 2.5 82t10.5 74q7 37 26 70t46.5 57.5t62.5 38.5t74 15q54 0 104 -26t88 -77l-69 -40q-23 32 -55.5 51.5t-66.5 19.5 q-26 0 -50 -9.5t-43 -26.5t-32.5 -40.5t-17.5 -50.5q-11 -63 -12 -132q26 26 62 42.5t78 18.5q43 0 82 -15t69 -42.5t48 -65t18 -82.5v-9zM398 208q-1 28 -12.5 53t-30.5 43t-44.5 28.5t-54.5 10.5t-54.5 -11.5t-44 -31.5t-29 -46t-10.5 -55t11.5 -53.5t30.5 -43t44.5 -29 t53.5 -10.5q29 0 54.5 10.5t44.5 29.5t30 43.5t11 53.5v8z" />
<glyph unicode="7" horiz-adv-x="443" d="M307 608h-253v73h369l-318 -681h-82z" />
<glyph unicode="8" horiz-adv-x="459" d="M21 196q0 53 25.5 97.5t65.5 72.5q-69 49 -69 140q0 37 14.5 69.5t39.5 57t58 38.5t70 14q39 0 73 -14t58.5 -38.5t39 -57t14.5 -69.5q0 -45 -18 -80.5t-51 -59.5q42 -27 65.5 -71.5t23.5 -98.5q0 -42 -15.5 -79.5t-43.5 -65t-65.5 -44t-80.5 -16.5q-42 0 -79 16.5 t-64.5 44t-44 65t-16.5 79.5zM114 506q0 -22 9 -41.5t24 -33.5t35 -22.5t43 -8.5t43.5 8.5t35.5 22.5t24 33.5t9 41.5t-9 41.5t-24 33.5t-35.5 22.5t-43.5 8.5t-43 -8.5t-35 -22.5t-24 -33.5t-9 -41.5zM94 196q0 -27 10.5 -51t28.5 -42t41.5 -28.5t50.5 -10.5 q28 0 52.5 10.5t42.5 28.5t28.5 42t10.5 51t-10.5 51.5t-28.5 42.5t-42.5 28.5t-52.5 10.5q-27 0 -50.5 -10.5t-41.5 -28.5t-28.5 -42.5t-10.5 -51.5z" />
<glyph unicode="9" horiz-adv-x="489" d="M29 474q0 43 16.5 81.5t45 67t67 45.5t82.5 17q43 0 80 -16.5t65.5 -45t46.5 -66t21 -79.5q2 -30 2.5 -65.5t0.5 -67.5v-25q0 -39 -2.5 -75.5t-9.5 -70.5q-8 -40 -28 -73.5t-50 -57.5t-67 -37t-77 -13q-50 0 -97.5 26.5t-81.5 69.5l64 53q24 -36 56.5 -55.5t65.5 -19.5 q57 0 96.5 35.5t51.5 87.5v-1q4 31 6.5 65t3.5 69q-29 -26 -67 -42t-82 -16q-42 0 -79.5 15.5t-66 43t-46 64.5t-17.5 80v6zM241 612q-30 0 -56 -11.5t-45.5 -31t-30.5 -45.5t-11 -54q1 -28 13 -52.5t30.5 -42.5t43.5 -28.5t53 -10.5q30 0 55.5 11t45 30t30.5 44.5t11 54.5 q0 28 -11.5 52.5t-30.5 43t-44.5 29.5t-52.5 11z" />
<glyph unicode=":" horiz-adv-x="182" d="M44 93h93v-93h-93v93zM44 501h93v-92h-93v92z" />
<glyph unicode=";" horiz-adv-x="169" d="M44 501h91v-92h-91v92zM49 93h78v-84l-98 -83l-20 32l40 63v72z" />
<glyph unicode="&#x3c;" horiz-adv-x="330" d="M260 502l52 -50l-201 -203l93 -93q26 -26 55 -54t53 -52l-51 -52l-251 251z" />
<glyph unicode="=" horiz-adv-x="440" d="M57 443h346v-74h-346v74zM57 261h346v-73h-346v73z" />
<glyph unicode="&#x3e;" horiz-adv-x="336" d="M322 249l-251 -251l-51 52l201 199q-24 24 -47 46t-47 48l-26 26l-29 29t-28.5 29t-23.5 25l51 50z" />
<glyph unicode="?" horiz-adv-x="410" d="M169 0l-88 312v60h105q24 1 44.5 10.5t36 25t24.5 37t9 46.5t-9.5 47.5t-25 39t-37 26t-45.5 9.5q-32 0 -61 -21.5t-49 -56.5l-51 51q28 45 70 72t91 27q39 0 73 -15.5t59.5 -42t40 -61.5t14.5 -75q0 -38 -14.5 -72.5t-39 -60.5t-58 -41.5t-72.5 -15.5h-29 q5 -15 9.5 -30.5t9.5 -31.5q17 -57 36 -122t35 -117h-78zM184 -74q0 19 12.5 30t28.5 11q19 0 30 -11t11 -30q0 -17 -11 -30.5t-30 -13.5q-16 0 -28.5 13.5t-12.5 30.5z" />
<glyph unicode="@" horiz-adv-x="754" d="M491 206q9 0 21 6.5t25.5 17.5t25.5 26.5t21 33.5q5 10 9.5 25t7.5 31.5t5 32t2 27.5q0 40 -16.5 76t-46 63t-70.5 43t-91 16q-57 0 -105 -21t-83 -58t-55 -87.5t-20 -109.5q0 -116 71 -181t201 -65q81 0 139 29.5t87 73.5h92l-14 -32q-16 -30 -44 -57.5t-66.5 -48.5 t-87 -33.5t-105.5 -12.5q-78 0 -142.5 20.5t-111 61t-72.5 100.5t-26 139q0 77 24.5 143.5t70 115t109 76.5t141.5 28q59 0 113.5 -19t96 -55t66.5 -88t25 -118q0 -45 -15 -91.5t-42 -84.5t-64 -64.5t-81 -32.5q-14 1 -35.5 4t-37.5 17q-16 -10 -36.5 -17t-40.5 -7 q-29 0 -53.5 11t-42.5 29.5t-28.5 44t-10.5 54.5t10.5 54t29.5 43.5t44 29t54 10.5h59q-1 29 -6 50.5t-22 21.5q-20 0 -32 -1.5t-29 -7.5l-22 -1l-18 74l23 1q19 6 36.5 8t42.5 2q25 -1 42.5 -12.5t29.5 -31t18.5 -45.5t9.5 -55q-1 -22 -1 -46q-1 -20 -1 -45v-51v-12t-1 -12 v1q-2 -14 0.5 -25.5t22.5 -11.5zM404 335h-65q-30 0 -51.5 -19t-21.5 -48t20.5 -48.5t49.5 -19.5q28 0 48 19.5t20 48.5v67z" />
<glyph unicode="A" d="M376 346q-8 23 -19 51.5t-19 50.5v-1q-6 16 -11 28.5t-9.5 24.5t-9.5 25t-11 31q-8 -19 -16 -40t-14 -40v-1q-14 -35 -24 -63t-24 -66h157zM270 691h55l255 -691h-76l-101 273h-210q-16 -43 -32.5 -87.5t-33.5 -89.5q-9 -23 -19 -48.5t-18 -47.5h-75z" />
<glyph unicode="B" horiz-adv-x="512" d="M251 0h-209v691h226q40 -1 74.5 -15.5t60 -39t40.5 -56.5t15 -67q0 -46 -20.5 -83t-55.5 -63q41 -27 65.5 -70.5t24.5 -93.5q0 -41 -15.5 -77t-43 -63.5t-64.5 -43.5t-80 -17h1zM386 513q0 21 -9 40t-25 33t-38 23t-47 11h-153v-217h154q25 1 46.5 9.5t37.5 23t25 34.5 t9 43zM268 73q27 1 51 12t42 29t28 40.5t10 48.5q0 25 -10 47.5t-28 39.5t-42 28t-52 12h-153v-257h154z" />
<glyph unicode="C" horiz-adv-x="590" d="M511 537q-38 40 -83 62.5t-93 22.5q-50 0 -94 -21.5t-77 -59t-52 -88t-19 -108.5q0 -57 18.5 -108t50.5 -89t76.5 -60.5t96.5 -22.5q48 0 92 22.5t83 61.5l50 -50q-48 -50 -105.5 -79t-119.5 -29q-63 0 -120 28t-100.5 76.5t-69.5 113t-26 136.5q0 70 24.5 133.5 t67.5 111.5t100.5 76.5t123.5 28.5q63 0 122 -29t105 -79z" />
<glyph unicode="D" horiz-adv-x="575" d="M99 618v-545h45.5t45.5 1q25 0 49.5 0.5t48.5 0.5q35 1 66 23t54.5 58.5t37 85.5t13.5 105t-13.5 105t-37 85.5t-55 58t-67.5 22.5h-187zM26 691h260q51 -1 96 -28t78.5 -73.5t52.5 -109t19 -133.5t-19 -133.5t-52 -109.5t-77.5 -74.5t-95.5 -29.5h-262v691z" />
<glyph unicode="E" horiz-adv-x="485" d="M395 330h-290v-257h340v-73h-412v691h412v-71h-340v-217h290v-73z" />
<glyph unicode="F" horiz-adv-x="487" d="M399 330h-290v-330h-72v691h412v-70h-340v-218h290v-73z" />
<glyph unicode="G" horiz-adv-x="604" d="M552 88q-45 -46 -100.5 -71.5t-118.5 -25.5q-66 0 -123.5 28t-100.5 75.5t-68 111.5t-25 136q0 73 25 137t68 112t100.5 76t123.5 28q63 0 121.5 -28.5t106.5 -79.5l-51 -51q-38 40 -83.5 62.5t-93.5 22.5q-51 0 -95.5 -21.5t-77.5 -59.5t-52.5 -89t-19.5 -109 q0 -57 19.5 -108t52.5 -89.5t77.5 -60.5t95.5 -22q42 0 80 16.5t68 42.5v165h-181v71h254v-259z" />
<glyph unicode="H" horiz-adv-x="558" d="M111 330v-330h-73v691h73v-288h330v288h72v-691h-72v330h-330z" />
<glyph unicode="I" horiz-adv-x="138" d="M106 0h-73v691h73v-691z" />
<glyph unicode="J" horiz-adv-x="305" d="M253 177q0 -38 -11.5 -71.5t-30.5 -59t-44 -40.5t-53 -15q-27 0 -52.5 16t-47.5 41l48 50q14 -14 27 -24t25 -10q27 0 46 31.5t19 79.5v516h74v-514z" />
<glyph unicode="K" horiz-adv-x="583" d="M106 691v-328q71 81 142.5 164t140.5 164h98l-260 -303q39 -46 81 -95t85.5 -99t85.5 -99.5t81 -94.5h-96l-286 333q-8 -10 -16 -19.5t-17 -19.5q-10 -12 -19 -23.5t-20 -22.5v-248h-73v691h73z" />
<glyph unicode="L" horiz-adv-x="453" d="M104 73h322v-73h-394v691h72v-618z" />
<glyph unicode="M" horiz-adv-x="623" d="M503 691h67v-691h-74v536q-44 -74 -89 -152t-87 -151h-45l-178 303v-536h-73v691h66l209 -351z" />
<glyph unicode="N" horiz-adv-x="537" d="M101 691l315 -533v533h73v-691h-66l-315 536v-536h-72v691h65z" />
<glyph unicode="O" horiz-adv-x="690" d="M502 548q-32 35 -75 54t-91 19q-50 0 -94 -21.5t-77 -59t-52 -87.5t-19 -108t19 -109t51.5 -89t76.5 -60t95 -22q52 0 96.5 22t77.5 60t51.5 89t18.5 109q0 61 -20.5 113.5t-57.5 89.5zM555 88q-43 -47 -98.5 -72t-120.5 -25q-63 0 -120.5 27t-101 74.5t-69 112.5 t-25.5 140q0 73 25 136.5t67.5 111t100 75t123.5 27.5q68 0 125.5 -27.5t99.5 -74.5t66 -111t24 -137q0 -78 -25 -143t-71 -114z" />
<glyph unicode="P" horiz-adv-x="480" d="M113 329v-329h-72v691h205q42 0 79 -14t64.5 -38.5t43.5 -57t16 -68.5q0 -39 -16 -72.5t-43.5 -58t-64.5 -39t-79 -14.5h-133zM113 620v-218h133q27 0 50.5 8.5t41 23.5t28 35t10.5 44q0 22 -10.5 41.5t-28.5 34t-41.5 23t-50.5 8.5h-132z" />
<glyph unicode="Q" horiz-adv-x="665" d="M471 558q-30 32 -68 51t-83 19q-46 0 -86.5 -20.5t-71 -56t-48 -83t-17.5 -101.5q0 -44 12 -84t33 -72.5t50.5 -56.5t64.5 -36v65q42 1 71.5 -19t40.5 -50q36 11 68 35t55.5 57t37.5 74.5t14 86.5q0 57 -19 106t-54 85zM265 116q-2 1 -4 1t-4 1v-2h8zM522 131 q-29 -32 -66.5 -53.5t-79.5 -30.5q4 -19 10 -30t14 -11q6 0 13 9t12 23l55 -48q-19 -25 -38.5 -39.5t-41.5 -14.5q-33 0 -58.5 30.5t-34.5 75.5q-56 5 -106.5 31.5t-89 70t-61 100.5t-22.5 123q0 70 23.5 130t64 104t93 69t111.5 25q60 0 113.5 -25t94 -69.5t64 -104.5 t23.5 -129q0 -70 -25.5 -130.5t-67.5 -105.5z" />
<glyph unicode="R" horiz-adv-x="474" d="M105 303v-303h-73v691h205q42 0 79 -14t64.5 -38t43.5 -57t16 -70q0 -38 -16 -71t-43.5 -58t-64.5 -39t-79 -14h-58q30 -35 62.5 -72t65.5 -74q19 -22 40 -46t42.5 -48t42 -47t38.5 -43h-95zM105 621v-218h132q27 0 50.5 8.5t41 23t28 34.5t10.5 43q0 22 -10.5 42 t-28.5 35t-42 23.5t-51 8.5h-130z" />
<glyph unicode="S" horiz-adv-x="485" d="M86 146q25 -38 62.5 -60t83.5 -22q27 0 52 9t44 24t30 36t11 45q0 23 -10.5 44t-28.5 38t-42 29t-51 16q-43 6 -80 23.5t-64.5 44t-43.5 59.5t-16 70q0 41 17 76.5t46.5 61t69.5 40t85 14.5q60 0 108 -23.5t87 -66.5l-60 -48q-26 32 -60 50t-75 18q-28 0 -54 -9.5 t-46 -25.5t-32 -37.5t-12 -45.5t10.5 -46.5t29 -40t43.5 -29t54 -13.5q43 -5 79.5 -23t63.5 -44t42 -59.5t15 -69.5q0 -40 -17 -74.5t-46 -60t-68 -40.5t-83 -15q-63 0 -116 30.5t-85 78.5z" />
<glyph unicode="T" horiz-adv-x="575" d="M320 620v-620h-73v620h-216v71h503v-71h-214z" />
<glyph unicode="U" horiz-adv-x="598" d="M108 182q4 -23 20 -44t41 -37.5t57.5 -26t68.5 -9.5q34 0 65.5 9.5t56 26t40.5 37.5t19 44v509h73v-510q-2 -39 -22.5 -73.5t-55 -60.5t-80 -41t-96.5 -15q-53 0 -100 15t-82 41t-56.5 60t-24.5 73v511h76v-509z" />
<glyph unicode="V" horiz-adv-x="639" d="M27 691h75l212 -569q21 60 43 118t44 118q31 82 62.5 167t60.5 166h76l-255 -691h-64z" />
<glyph unicode="W" horiz-adv-x="915" d="M602 0h-65l-93 251q-11 -27 -20.5 -55t-19.5 -56q-13 -34 -26 -70.5t-25 -69.5h-65l-255 691h75l212 -570q10 26 19.5 53.5t19.5 54.5v-1q12 33 23.5 64t23.5 64q-15 39 -29.5 79t-29.5 81v-1q-15 42 -32 89t-32 87h75l101 -273q14 -39 28 -74.5t28 -72.5 q8 -21 14.5 -38.5t12.5 -35t13 -36t15 -40.5q20 54 39.5 107t40.5 110q32 88 65.5 178t64.5 175h77z" />
<glyph unicode="X" horiz-adv-x="541" d="M23 691h84l161 -270q18 32 36.5 62.5t37.5 62.5l43.5 72.5t42.5 72.5h85l-201 -344q23 -39 47 -81t47 -83q25 -44 54 -93t53 -90h-85l-166 280q-24 -42 -48.5 -84t-49.5 -84q-16 -27 -33.5 -56t-32.5 -56h-84l206 353z" />
<glyph unicode="Y" horiz-adv-x="681" d="M655 691l-286 -382v-309h-74v309q-18 24 -38.5 52t-40.5 54q-24 32 -51.5 68.5t-54.5 72.5t-52.5 71t-47.5 64h95l226 -310l30 40t30 41q41 56 84.5 115t85.5 114h94z" />
<glyph unicode="Z" horiz-adv-x="548" d="M142 73h337v-73h-468l385 618h-345v73h474z" />
<glyph unicode="[" horiz-adv-x="210" d="M160 71h16v-71q-13 0 -28.5 4.5t-28.5 12.5t-22 19t-9 25v226q0 11 -7.5 18.5t-17.5 7.5h-36v72h36q10 0 17.5 7.5t7.5 18.5v219q4 23 30 37t58 14v-74q-6 0 -10.5 -1.5t-5.5 0.5v-208q-6 -17 -15 -29t-26 -15v-10q32 -10 41 -39v-234z" />
<glyph unicode="\" horiz-adv-x="371" d="M26 681h75l250 -681h-77z" />
<glyph unicode="]" horiz-adv-x="183" d="M32 303q8 36 38 42q0 3 0.5 5.5t0.5 4.5q-14 5 -25 16t-14 25v211h-18v74q37 0 60.5 -15t28.5 -36l2 -8v-211q0 -11 5.5 -18.5t16.5 -7.5h36v-72h-36q-11 0 -16.5 -7.5t-5.5 -18.5v-226q0 -14 -8.5 -25t-21.5 -19t-29.5 -12.5t-31.5 -4.5v71q8 0 12 -0.5t6 0.5v232z" />
<glyph unicode="^" horiz-adv-x="551" d="M269 687l251 -251l-52 -51l-200 201q-48 -46 -94 -94q-26 -26 -55 -54.5t-53 -52.5l-51 52z" />
<glyph unicode="_" horiz-adv-x="513" d="M30 0v71h428v-71h-428z" />
<glyph unicode="`" horiz-adv-x="204" d="M-13 632h117l85 -113h-58z" />
<glyph unicode="a" horiz-adv-x="406" d="M293 19q-21 -14 -46 -21.5t-51 -7.5q-34 0 -64.5 12.5t-53 34t-36 50t-13.5 61.5q0 35 14 64.5t37.5 50.5t55 33t66.5 12h91v3q0 51 -23 86.5t-61 37.5q-26 0 -56.5 -4.5t-63.5 -14.5l-18 70q35 10 69.5 15.5t69.5 5.5q31 -1 58.5 -15t48.5 -37.5t33.5 -55.5t14.5 -68 v-10q-1 -24 -1 -50q-1 -23 -1 -51v-57q0 -26 1.5 -51.5t5 -47.5t9 -39t12.5 -25h-98v19zM293 236h-91q-42 0 -71.5 -24t-29.5 -64q0 -18 7.5 -33t20.5 -26.5t30 -18t37 -6.5t38 6.5t31 18t20.5 26.5t7.5 33v88z" />
<glyph unicode="b" horiz-adv-x="523" d="M119 104q0 -8 10 -15.5t27 -12.5t40 -8.5t49 -4.5q34 1 65 16t54 40t36.5 59t13.5 72q0 37 -13.5 70.5t-36.5 59t-54 40.5t-65 15q-48 0 -83.5 -11t-42.5 -25v-295zM119 0h-93q8 11 12 28.5t7 34.5q3 19 5 41v577h72v-197q52 23 123 23q50 0 94 -20.5t76.5 -56t51.5 -82 t19 -98.5q0 -53 -19 -100t-52 -82t-77 -56t-94 -22q-38 2 -69 8t-56 17v-15z" />
<glyph unicode="c" horiz-adv-x="478" d="M386 364q-27 32 -61.5 51.5t-70.5 19.5q-35 0 -65.5 -14.5t-53.5 -40t-36.5 -59t-13.5 -72.5q0 -38 13.5 -72t36.5 -59t53.5 -39.5t65.5 -14.5t68 17.5t61 49.5l53 -51q-39 -41 -85 -65t-97 -24q-49 0 -92.5 20.5t-76.5 55.5t-52 82t-19 100t19 100t52 82t76.5 55.5 t92.5 20.5q52 0 100 -25t84 -65z" />
<glyph unicode="d" horiz-adv-x="534" d="M112 253q0 -38 13 -71.5t36.5 -59t55 -41t67.5 -16.5q25 1 47 5t38.5 9.5t26 12.5t9.5 14v291q-6 14 -40 26t-82 12q-36 -1 -67 -16t-54 -40t-36.5 -57.5t-13.5 -68.5zM405 18q-25 -10 -57 -16.5t-64 -8.5q-50 1 -94 22t-77 56t-52 82t-19 100q0 52 19 98.5t52 81 t76.5 54.5t93.5 20q38 0 66.5 -5t55.5 -19v198h72v-575q0 -22 4 -41q3 -17 10.5 -34t21.5 -28h-108v15z" />
<glyph unicode="e" horiz-adv-x="456" d="M233 63q14 0 31 3.5t34 9.5t33.5 13t30.5 13l28 -63q-32 -18 -65 -29.5t-66 -17.5q-6 -1 -13.5 -1h-12.5q-42 0 -79.5 18.5t-67 51t-47.5 76.5t-21 94v19q0 53 16.5 100t44 82t64.5 55.5t79 20.5q43 0 79.5 -19.5t63.5 -53.5t42 -80t15 -100v-39h-329q4 -33 16 -61 t30.5 -48t42.5 -32t51 -12zM350 286q-4 32 -15.5 59.5t-28.5 47.5t-38.5 31t-45.5 11q-23 0 -43.5 -11.5t-37.5 -32t-29 -47.5t-17 -58h255z" />
<glyph unicode="f" horiz-adv-x="328" d="M292 607q-19 5 -28.5 5.5t-16.5 0.5q-34 -2 -58 -34t-24 -80v-8h123v-73h-123v-418h-69v418h-71v73h70q-1 0 -1 1v2v3v13q2 35 15 67t33.5 56t47.5 38t57 14q11 0 24.5 -0.5t42.5 -4.5z" />
<glyph unicode="g" horiz-adv-x="551" d="M196 140q2 0 2.5 0.5t2.5 0.5h2q5 2 12.5 2h13.5q43 0 80.5 -13t65 -35t43.5 -52t16 -64t-16 -64.5t-43.5 -53t-65 -36t-80.5 -13.5q-41 0 -78 13.5t-65 36t-44.5 53t-16.5 64.5q0 42 25.5 78.5t66.5 58.5q-3 8 -3.5 17t-0.5 19q0 13 3.5 25.5t8.5 22.5q-62 50 -62 129 q0 36 16 68.5t43 57t64 38.5t79 14q25 0 42 -3t34 -7h194l-68 -72h-29q14 -20 22.5 -45t8.5 -51q0 -38 -16 -70t-43.5 -56t-65 -37.5t-79.5 -13.5q-15 0 -26.5 2t-21.5 4q-18 5 -28 5q-5 0 -10 -2t-5 -7q0 -9 5.5 -11.5t11.5 -2.5h5zM96 -21q0 -20 10.5 -37.5t29 -30.5 t42.5 -21t51 -8q28 0 53 8t43.5 21t29 30.5t10.5 37.5q0 19 -10.5 36.5t-29 30.5t-43.5 21t-53 8q-27 0 -51 -8t-42.5 -21t-29 -30.5t-10.5 -36.5zM134 329q0 -22 10.5 -41.5t28 -34t41.5 -23t51 -8.5q28 0 52.5 8.5t42.5 23t28.5 34t10.5 41.5t-10.5 42t-28.5 34.5 t-42.5 23t-52.5 8.5q-27 0 -51 -8.5t-41.5 -23t-28 -34.5t-10.5 -42z" />
<glyph unicode="h" horiz-adv-x="455" d="M106 683v-219q47 44 115 44q36 0 67.5 -14.5t54.5 -40t36.5 -59.5t14.5 -73l3 -318h-71v318q-1 24 -10.5 45.5t-24.5 37t-34.5 24.5t-41.5 9q-18 0 -35.5 -9t-32 -23.5t-25.5 -33t-16 -38.5v-333h-71v683h71z" />
<glyph unicode="i" horiz-adv-x="177" d="M49 501h70v-501h-70v501zM41 626q0 17 12 29t31 12q17 0 30.5 -12t13.5 -29t-13.5 -29.5t-30.5 -12.5q-19 0 -31 12.5t-12 29.5z" />
<glyph unicode="j" horiz-adv-x="354" d="M173 621q0 19 11.5 30t31.5 11q14 0 27 -11t13 -30q0 -17 -13 -29.5t-27 -12.5q-20 0 -31.5 12.5t-11.5 29.5zM43 -113q17 0 26.5 -0.5t14.5 -1.5q3 -1 4 -1l2 3q19 0 36 8.5t29 23.5t19 34.5t7 42.5v506h71v-515q-2 -35 -14.5 -66t-32.5 -54.5t-47.5 -37.5t-58.5 -15 q-8 0 -17 0.5t-19 1.5q-2 1 -7 1.5t-20 0.5z" />
<glyph unicode="k" horiz-adv-x="440" d="M121 363q26 22 53 45t53 45q12 11 25 21.5t24 21.5h113l-167 -139q14 -26 29 -51t30 -51q35 -60 73.5 -128.5t72.5 -126.5h-85l-176 309q-11 -10 -22 -19.5t-23 -19.5v-270h-100q9 9 18.5 26.5t9.5 32.5v622h72v-318z" />
<glyph unicode="l" horiz-adv-x="162" d="M49 681h71v-681h-71v681z" />
<glyph unicode="m" horiz-adv-x="739" d="M106 462q45 44 112 44q47 0 84.5 -22.5t61.5 -60.5q26 46 66 65.5t79 19.5q36 0 67 -14.5t54 -39.5t37 -59.5t15 -73.5l2 -319h-72v319q-1 24 -9.5 44.5t-22.5 36.5t-33.5 25t-41.5 9q-20 0 -37.5 -9t-32.5 -23t-25.5 -33t-14.5 -38v-331h-72v317q0 24 -9 45t-23.5 36.5 t-34.5 24.5t-42 9q-19 0 -36.5 -9t-31.5 -23t-24.5 -33t-15.5 -38v-331h-72v440q0 6 -2.5 15t-7 18t-9.5 16.5t-9 11.5h100v-39z" />
<glyph unicode="n" horiz-adv-x="433" d="M99 465q24 24 51.5 34t63.5 10t67 -14.5t54.5 -40t37.5 -60t15 -73.5l2 -321h-72v321q0 24 -9 45.5t-24 37t-34.5 24.5t-41.5 9q-19 0 -37 -8.5t-32.5 -23t-25 -33.5t-15.5 -39v-333h-71v442q0 13 -10 30t-18 25h99v-32z" />
<glyph unicode="o" horiz-adv-x="513" d="M86 248q0 -38 13 -72t35 -59t51.5 -39.5t63.5 -14.5q33 0 62.5 14.5t51.5 39.5t35 59t13 72q0 39 -13 73t-35 59.5t-51.5 40t-62.5 14.5q-34 0 -63.5 -14.5t-51.5 -40t-35 -59.5t-13 -73zM13 248q0 54 18.5 101t51 82t75.5 55.5t91 20.5q49 0 92 -20.5t74.5 -55.5t50 -82 t18.5 -101q0 -53 -18.5 -100t-50 -82t-74.5 -55.5t-92 -20.5q-48 0 -91 20.5t-75.5 55.5t-51 82t-18.5 100z" />
<glyph unicode="p" horiz-adv-x="506" d="M101 102q5 -14 41 -25t83 -13q35 1 66 16t54.5 40.5t37 59.5t13.5 73q0 38 -13.5 71.5t-37 58.5t-54.5 39.5t-66 14.5q-26 0 -48.5 -3t-39 -8.5t-26.5 -12.5t-10 -14v-297zM101 484q24 10 58 18t66 8q51 -1 95 -22t76.5 -55.5t51.5 -81t19 -98.5q0 -54 -19 -102 t-51.5 -83t-76.5 -55.5t-95 -20.5q-35 0 -67 6.5t-56 17.5v-199h-72v582q-1 20 -5 39q-3 16 -8.5 33.5t-16.5 28.5h101v-16z" />
<glyph unicode="q" horiz-adv-x="513" d="M381 496h71v-679h-71v217q-24 -13 -55 -18.5t-65 -5.5q-47 1 -89.5 21t-74.5 53.5t-50.5 78t-18.5 95.5t18.5 96.5t50.5 79t74.5 53.5t89.5 20q73 0 120 -21v10zM381 399q0 7 -9.5 14t-26 12.5t-38 8.5t-46.5 3q-34 0 -63.5 -14t-51.5 -38.5t-35 -57t-13 -69.5t13 -69 t35 -56t51.5 -38.5t63.5 -15.5q47 0 80.5 11t39.5 27v282z" />
<glyph unicode="r" horiz-adv-x="279" d="M241 428q-17 5 -21.5 6t-8.5 1q-19 0 -36.5 -8.5t-32 -23t-25 -33.5t-14.5 -39v-331h-72v440q0 13 -11 30.5t-32 31.5h115v-39q46 44 113 44q7 0 16.5 -1t26.5 -8z" />
<glyph unicode="s" horiz-adv-x="417" d="M325 388q-23 22 -54 34t-63 12q-41 0 -68.5 -17.5t-27.5 -46.5q0 -28 28.5 -51.5t73.5 -31.5q34 -5 63.5 -19.5t51 -35.5t34 -47t12.5 -53q0 -31 -13.5 -57t-36.5 -44.5t-54 -28.5t-65 -10q-45 0 -92.5 21t-78.5 59l54 42q22 -22 52.5 -36t61.5 -14q21 0 39 5t32 14 t22 21.5t8 27.5q0 13 -9 26.5t-23 25t-33 21t-38 14.5q-33 5 -62 20t-51.5 36t-35.5 45.5t-13 50.5q0 30 14 55t37.5 43t55 27.5t66.5 9.5q48 0 93.5 -21.5t77.5 -54.5z" />
<glyph unicode="t" horiz-adv-x="340" d="M180 681v-186h126v-73h-126v-422h-71v422h-71v73h69v186h73z" />
<glyph unicode="u" horiz-adv-x="450" d="M325 36q-23 -21 -51.5 -33t-62.5 -12q-35 0 -65.5 14.5t-54 39t-37.5 58t-15 72.5l-3 3v321h71v-314l1 -5q1 -23 10 -44t24 -37t34.5 -25t41.5 -9q19 0 36.5 9t32 23.5t24.5 33t14 38.5v332h72v-439q0 -15 9.5 -34t18.5 -28h-100v36z" />
<glyph unicode="v" horiz-adv-x="500" d="M7 501h76l159 -387q28 71 55 138t56 138q11 26 22.5 56.5t22.5 54.5h79l-205 -501h-63z" />
<glyph unicode="w" horiz-adv-x="705" d="M463 0l-63 3l-63 157q-11 -26 -22 -51.5t-22 -51.5q-5 -13 -12 -29t-12 -28l-61 3l-203 498h77l157 -384q5 13 10.5 25t11.5 26q9 23 17.5 44t17.5 44q-12 31 -25 65t-27 66q-5 12 -11 27t-12 30.5t-12 30t-10 26.5h80l154 -386q39 96 78.5 193.5t77.5 192.5h79z" />
<glyph unicode="x" horiz-adv-x="444" d="M13 501h87l111 -178q17 29 36.5 57t37.5 57q11 15 21.5 32.5t20.5 31.5h86l-157 -249q22 -35 45.5 -73t47.5 -76q14 -23 32 -52.5t32 -50.5h-85l-119 188q-7 -11 -12.5 -20.5t-13.5 -20.5h1q-22 -36 -45 -74t-45 -73h-86l158 260z" />
<glyph unicode="y" horiz-adv-x="535" d="M51 -97q14 -15 24.5 -17.5t18.5 -2.5q29 0 56.5 19.5t41.5 57.5q5 12 9 23t9 23q5 11 8.5 20.5t8.5 20.5q-7 17 -14 34.5t-13 34.5q-18 43 -39 94t-42 103t-41.5 102t-37.5 92h77l146 -368q23 58 46.5 117.5t47.5 119.5q12 32 25.5 66.5t26.5 64.5h77l-188 -464 q-5 -11 -8.5 -22t-8.5 -22q-5 -15 -12.5 -31.5t-12.5 -33.5q-11 -29 -29 -51.5t-40 -38.5t-46 -24t-48 -8q-23 0 -53 8z" />
<glyph unicode="z" horiz-adv-x="452" d="M34 63l276 366h-273v72h374v-62l-276 -367h276v-72h-377v63z" />
<glyph unicode="{" horiz-adv-x="223" d="M160 71h16v-71q-13 0 -28.5 4.5t-28.5 12.5t-22 19t-9 25v226q0 11 -7.5 18.5t-17.5 7.5h-36v72h36q10 0 17.5 7.5t7.5 18.5v219q4 23 30 37t58 14v-74q-6 0 -10.5 -1.5t-5.5 0.5v-208q-6 -17 -15 -29t-26 -15v-10q32 -10 41 -39v-234z" />
<glyph unicode="|" horiz-adv-x="131" d="M40 705h57v-704h-57v704z" />
<glyph unicode="}" horiz-adv-x="188" d="M32 303q8 36 38 42q0 3 0.5 5.5t0.5 4.5q-14 5 -25 16t-14 25v211h-18v74q37 0 60.5 -15t28.5 -36l2 -8v-211q0 -11 5.5 -18.5t16.5 -7.5h36v-72h-36q-11 0 -16.5 -7.5t-5.5 -18.5v-226q0 -14 -8.5 -25t-21.5 -19t-29.5 -12.5t-31.5 -4.5v71q8 0 12 -0.5t6 0.5v232z" />
<glyph unicode="~" horiz-adv-x="347" d="M219 273q-39 0 -66 15q-6 2 -13.5 3t-15.5 1q-41 0 -77 -30l-31 60q23 17 52 25.5t55 8.5q14 0 26.5 -3.5t24.5 -7.5l-1 1q2 0 4 -0.5t3 -0.5q10 -3 19 -5.5t17 -2.5q19 0 41 8t39 22l26 -60q-22 -15 -48 -24.5t-55 -9.5z" />
<glyph unicode="&#xa1;" horiz-adv-x="160" d="M41 646q0 15 10.5 27t27.5 12q15 0 26.5 -12t11.5 -27q0 -17 -11.5 -28t-26.5 -11q-20 0 -28.5 11t-9.5 26v2zM111 0h-65v584h65v-584z" />
<glyph unicode="&#xa2;" horiz-adv-x="478" d="M217 569h76v-66q40 -7 77.5 -30.5t67.5 -55.5l-52 -53q-20 25 -43.5 42.5t-49.5 23.5v-363q23 8 47.5 24.5t44.5 38.5l51 -50q-33 -35 -67.5 -57.5t-75.5 -28.5v-64h-76v65q-41 9 -78 32t-64.5 57t-44 76t-16.5 89q0 48 15.5 91.5t43 77.5t64.5 56.5t80 28.5v66zM85 249 q0 -33 10 -63t27.5 -54t41.5 -41t53 -24v363q-29 -6 -53 -23t-41.5 -41t-27.5 -54t-10 -63z" />
<glyph unicode="&#xa3;" horiz-adv-x="556" d="M201 282v-211h316v-71h-388v282h-113v72h113v327h72v-327h171v-72h-171z" />
<glyph unicode="&#xa5;" horiz-adv-x="681" d="M156 212h137v4h-137v73h137v15q-42 57 -87 117.5t-91 121.5q-24 31 -53 70t-50 68h94l222 -306q57 76 113.5 153t113.5 153h93l-281 -377v-15h137v-73h-137v-4h137v-73h-137v-139h-74v139h-137v73z" />
<glyph unicode="&#xa6;" horiz-adv-x="131" d="M40 385v320h57v-320h-57zM97 355v-354h-57v354h57z" />
<glyph unicode="&#xa7;" horiz-adv-x="356" d="M255 406q-50 24 -84 24q-8 0 -8.5 1t-6.5 -1q10 -14 24 -25t34 -21h-1q54 -26 84.5 -69t30.5 -89q0 -26 -9.5 -48.5t-26.5 -39.5v-16q0 -31 -12.5 -55t-33 -41t-47 -26t-54.5 -9q-46 0 -112 32l32 61q46 -21 79 -21q24 0 44.5 9t28.5 26q-17 -3 -37 -3q-24 0 -52.5 7.5 t-57.5 22.5l31 64q47 -22 81 -22q14 0 25 3q-10 15 -25.5 26.5t-35.5 22.5q-26 13 -47.5 31.5t-37.5 39.5t-24.5 43.5t-8.5 44.5q0 27 8.5 48t28.5 38v17q0 29 11.5 52t31.5 39t46 24.5t56 8.5q22 0 50.5 -7t60.5 -21l-31 -68q-24 13 -45 19t-37 6q-23 0 -42 -9t-27 -26 q8 2 16 2h18q44 0 113 -29zM178 281q23 -12 43.5 -27.5t34.5 -33.5q1 2 1 8q0 12 -6 25.5t-16.5 26t-24.5 24t-30 20.5h1q-50 20 -79 60q-1 -3 -1 -10q0 -25 21 -50.5t56 -42.5zM250 199v-1l18 4q-5 9 -12 18q-1 -9 -5 -18z" />
<glyph unicode="&#xa8;" horiz-adv-x="263" d="M25 626q0 17 13 29t30 12t30 -12t13 -29t-13 -29.5t-30 -12.5t-30 12.5t-13 29.5zM150 626q0 17 13 29t30 12t30.5 -12t13.5 -29t-13.5 -29.5t-30.5 -12.5t-30 12.5t-13 29.5z" />
<glyph unicode="&#xaa;" horiz-adv-x="179" d="M116 301q-8 -4 -15 -4.5t-15 -0.5q-32 0 -53.5 21t-21.5 51q0 29 21.5 49t55.5 20h14q-4 14 -11 14q-11 0 -23.5 -2.5t-32.5 -8.5l-11 57q17 5 32.5 7.5t34.5 2.5q26 0 46 -22.5t22 -58.5q-1 -7 -1 -16v-37q0 -15 10 -37.5t24 -35.5zM86 382q-8 0 -13.5 -4.5t-5.5 -9.5 t5.5 -10t13.5 -5q7 0 12.5 5t5.5 10v14h-18z" />
<glyph unicode="&#xab;" horiz-adv-x="532" d="M446 509l47 -55l-220 -185q8 -11 16 -19t16 -19q37 -42 76.5 -88.5t73.5 -88.5l-53 -47l-229 272zM287 509l47 -55l-220 -185q21 -26 41.5 -50t42.5 -50q23 -28 49 -58t49 -56l-53 -48l-229 272z" />
<glyph unicode="&#xac;" horiz-adv-x="662" d="M610 153h-71v171h-505v71h576v-242z" />
<glyph unicode="&#xb0;" horiz-adv-x="250" d="M72 576q0 -20 16 -35t36 -15q17 0 31.5 15t14.5 35t-14.5 36.5t-31.5 16.5q-20 0 -36 -16.5t-16 -36.5zM13 576q0 23 8.5 43t23 34.5t35 23t44.5 8.5q44 0 74.5 -31t30.5 -78q0 -22 -8.5 -41.5t-22.5 -33.5t-33 -22.5t-41 -8.5q-24 0 -44.5 8.5t-35 22.5t-23 33.5 t-8.5 41.5z" />
<glyph unicode="&#xb1;" horiz-adv-x="452" d="M257 289h-72v142h-141v72h141v142h72v-142h142v-72h-142v-142zM43 145v71h355v-71h-355z" />
<glyph unicode="&#xb2;" horiz-adv-x="280" d="M248 358v-61h-228v51l150 168q8 8 12.5 20t4.5 23q0 26 -20 45t-46 19q-11 0 -27.5 -9t-35.5 -27l-46 47q26 23 53 37t56 14q27 0 50 -10t40.5 -27t27 -40t9.5 -49q0 -24 -10.5 -48t-23.5 -41l-100 -112h134z" />
<glyph unicode="&#xb3;" horiz-adv-x="265" d="M53 383q12 -13 28 -21.5t30 -8.5q23 0 42 15.5t19 37.5t-18 37.5t-39 18.5h-65v61h67q20 1 37.5 16.5t17.5 33.5t-18.5 32.5t-41.5 14.5q-31 0 -68 -40l-44 48q50 53 112 53q25 0 47.5 -8.5t39.5 -23t26.5 -34.5t9.5 -42q0 -27 -9 -48.5t-29 -35.5q15 -17 25.5 -38.5 t10.5 -44.5q0 -24 -9.5 -44.5t-26 -36t-39 -24t-47.5 -8.5q-33 0 -61 14.5t-52 40.5l35 35h20z" />
<glyph unicode="&#xb4;" horiz-adv-x="209" d="M71 519h-58l85 113h115z" />
<glyph unicode="&#xb6;" horiz-adv-x="382" d="M334 2h-70v678h70v-678zM274 0h-106v340q-32 4 -59.5 19t-48.5 38t-33 52t-12 61q0 36 13 67t36 54t54 36.5t66 13.5h90v-681zM156 612q-32 -5 -51.5 -32.5t-19.5 -65.5t19.5 -66t51.5 -32v196z" />
<glyph unicode="&#xb7;" horiz-adv-x="225" d="M46 310q0 12 5 23.5t14 20.5t21 14.5t26 5.5q13 0 25.5 -5.5t21.5 -14.5t14.5 -20.5t5.5 -23.5q0 -23 -20 -42t-47 -19q-28 0 -47 19t-19 42z" />
<glyph unicode="&#xb9;" horiz-adv-x="263" d="M15 568l136 113h61v-315h-72v213q-16 -14 -32 -26.5t-32 -25.5q-2 -1 -5 -4l-5 -5z" />
<glyph unicode="&#xba;" horiz-adv-x="232" d="M69 397q0 -18 14 -33.5t31 -15.5q15 0 27.5 15.5t12.5 33.5q0 21 -12.5 37.5t-27.5 16.5q-17 0 -31 -16.5t-14 -37.5zM13 397q0 48 28.5 79t72.5 31q20 0 37.5 -8t31 -23t21 -35t7.5 -44q0 -22 -7.5 -41t-21 -33.5t-31 -22.5t-37.5 -8q-44 0 -72.5 30t-28.5 75z" />
<glyph unicode="&#xbb;" horiz-adv-x="524" d="M332 279l-228 -272l-53 47l182 215q-32 28 -68 58.5t-71 59.5q-19 15 -41.5 33.5t-40.5 33.5l48 55zM491 279l-228 -272l-53 47l182 215q-32 28 -68 58.5t-71 59.5q-19 15 -41.5 33.5t-40.5 33.5l48 55z" />
<glyph unicode="&#xbc;" horiz-adv-x="382" d="M302 337l-97 -165h53v71h52v-71h46v-52h-46v-120h-52v120h-119v40l117 201zM15 443l77 64h42v-307h-53v232l-14 -12q-3 -2 -5 -3.5t-10 -9.5z" />
<glyph unicode="&#xbd;" horiz-adv-x="355" d="M3 443l77 65h42v-308h-52v233l-15 -12q-3 -2 -5 -3.5t-10 -9.5zM195 51h132v-51h-209v41l141 159q7 7 11.5 18.5t4.5 22.5q0 28 -19.5 46.5t-47.5 18.5q-13 0 -27 -7.5t-30 -21.5l-36 36q23 20 46.5 32.5t46.5 12.5q25 0 47 -9t38 -25t25 -37t9 -46q0 -23 -9.5 -43 t-23.5 -36z" />
<glyph unicode="&#xbe;" horiz-adv-x="458" d="M54 230q13 -15 28.5 -24t31.5 -9q26 0 45 16t19 39q0 15 -10 26t-26.5 18t-37.5 8.5t-43 -1.5v55h59q25 2 42 15t17 33q0 21 -18.5 36t-44.5 15q-17 0 -33.5 -9t-30.5 -24l-36 37q44 47 100 47q24 0 45 -8t36.5 -21.5t25 -32t9.5 -40.5q0 -24 -11 -43t-30 -32 q18 -15 28.5 -35.5t10.5 -43.5t-9 -42.5t-24.5 -33.5t-37 -22.5t-45.5 -8.5q-28 0 -53.5 14t-45.5 37zM211 121v41l118 200l46 -23l-94 -165h49v71h53v-71h46v-53h-46v-119h-53v119h-119z" />
<glyph unicode="&#xbf;" horiz-adv-x="432" d="M237 681l92 -315v-61h-109q-24 -1 -44.5 -10.5t-36 -25.5t-24.5 -38t-9 -47q0 -24 9.5 -46t25.5 -38.5t37.5 -26t46.5 -9.5q32 0 61.5 20.5t50.5 55.5l52 -52q-29 -44 -71.5 -71t-92.5 -27q-39 0 -73.5 15.5t-60 42t-40.5 62t-15 74.5t15 74t40 61.5t58.5 42.5t70.5 16 h30q-6 20 -13 43t-12 45q-16 51 -33.5 110t-30.5 105h76zM222 753q0 -18 -12.5 -30t-28.5 -12q-20 0 -31 12t-11 30q0 20 11 31.5t31 11.5q16 0 28.5 -11.5t12.5 -31.5z" />
<glyph unicode="&#xc0;" d="M376 346q-8 23 -19 51.5t-19 50.5v-1q-6 16 -11 28.5t-9.5 24.5t-9.5 25t-11 31q-8 -19 -16 -40t-14 -40v-1q-14 -35 -24 -63t-24 -66h157zM270 691h55l255 -691h-76l-101 273h-210q-16 -43 -32.5 -87.5t-33.5 -89.5q-9 -23 -19 -48.5t-18 -47.5h-75zM147 823h117 l85 -113h-58z" />
<glyph unicode="&#xc1;" d="M376 346q-8 23 -19 51.5t-19 50.5v-1q-6 16 -11 28.5t-9.5 24.5t-9.5 25t-11 31q-8 -19 -16 -40t-14 -40v-1q-14 -35 -24 -63t-24 -66h157zM270 691h55l255 -691h-76l-101 273h-210q-16 -43 -32.5 -87.5t-33.5 -89.5q-9 -23 -19 -48.5t-18 -47.5h-75zM318 710h-58l85 113 h115z" />
<glyph unicode="&#xc2;" d="M376 346q-8 23 -19 51.5t-19 50.5v-1q-6 16 -11 28.5t-9.5 24.5t-9.5 25t-11 31q-8 -19 -16 -40t-14 -40v-1q-14 -35 -24 -63t-24 -66h157zM270 691h55l255 -691h-76l-101 273h-210q-16 -43 -32.5 -87.5t-33.5 -89.5q-9 -23 -19 -48.5t-18 -47.5h-75z" />
<glyph unicode="&#xc3;" d="M346 738q-31 0 -59 11q-7 2 -14 3.5t-16 1.5q-19 0 -38.5 -7.5t-35.5 -18.5l-29 56q23 15 50 24t53 9q17 0 28.5 -2.5t21.5 -4.5h-2l2 -1q9 -3 19 -5.5t18 -2.5q20 0 41 7t36 20l27 -57q-23 -17 -49 -25t-53 -8zM383 363q-8 23 -19 51.5t-19 50.5v-1q-6 16 -11 28.5 t-9.5 24.5t-9.5 25t-11 31q-8 -19 -16 -40t-14 -40v-1q-14 -35 -24 -63t-24 -66h157zM277 708h55l255 -691h-76l-101 273h-210q-16 -43 -32.5 -87.5t-33.5 -89.5q-9 -23 -19 -48.5t-18 -47.5h-75z" />
<glyph unicode="&#xc4;" d="M376 346q-8 23 -19 51.5t-19 50.5v-1q-6 16 -11 28.5t-9.5 24.5t-9.5 25t-11 31q-8 -19 -16 -40t-14 -40v-1q-14 -35 -24 -63t-24 -66h157zM270 691h55l255 -691h-76l-101 273h-210q-16 -43 -32.5 -87.5t-33.5 -89.5q-9 -23 -19 -48.5t-18 -47.5h-75zM188 739q0 17 13 29 t30 12t30 -12t13 -29t-13 -29.5t-30 -12.5t-30 12.5t-13 29.5zM313 739q0 17 13 29t30 12t30.5 -12t13.5 -29t-13.5 -29.5t-30.5 -12.5t-30 12.5t-13 29.5z" />
<glyph unicode="&#xc6;" horiz-adv-x="1081" d="M511 620h-190q-13 -37 -25.5 -71t-25.5 -69q-12 -35 -22.5 -66t-24.5 -68h279zM915 691v-71h-340v-217h291v-73h-291v-257h340v-73h-413v273h-306q-11 -32 -23.5 -65.5t-24.5 -65.5q-14 -35 -27.5 -72.5t-25.5 -69.5h-77l256 691h641z" />
<glyph unicode="&#xc7;" horiz-adv-x="634" d="M535 537q-38 42 -84 64.5t-92 22.5q-51 0 -95.5 -22.5t-78 -61t-52.5 -89.5t-19 -109q0 -56 19 -107t52 -89.5t78 -61t96 -22.5q46 0 91 23t83 62l52 -49q-95 -100 -219 -106q14 -8 27 -24t13 -35q0 -17 -14.5 -36.5t-50.5 -39.5l-80 59q6 0 19.5 1t27 3t24 5.5t10.5 9.5 q0 8 -12.5 10.5t-19.5 2.5h-25l1 52q-51 14 -95.5 45.5t-77.5 76.5t-52 101t-19 119q0 75 25 139.5t68 112t100.5 74.5t123.5 27q63 0 121.5 -29t106.5 -81z" />
<glyph unicode="&#xc8;" horiz-adv-x="485" d="M395 330h-290v-257h340v-73h-412v691h412v-71h-340v-217h290v-73zM78 823h117l85 -113h-58z" />
<glyph unicode="&#xc9;" horiz-adv-x="485" d="M395 330h-290v-257h340v-73h-412v691h412v-71h-340v-217h290v-73zM235 710h-58l85 113h115z" />
<glyph unicode="&#xcb;" horiz-adv-x="485" d="M395 330h-290v-257h340v-73h-412v691h412v-71h-340v-217h290v-73zM132 740q0 17 13 29t30 12t30 -12t13 -29t-13 -29.5t-30 -12.5t-30 12.5t-13 29.5zM257 740q0 17 13 29t30 12t30.5 -12t13.5 -29t-13.5 -29.5t-30.5 -12.5t-30 12.5t-13 29.5z" />
<glyph unicode="&#xcc;" horiz-adv-x="131" d="M114 0h-73v691h73v-691zM-69 823h117l85 -113h-58z" />
<glyph unicode="&#xcd;" horiz-adv-x="154" d="M106 0h-73v691h73v-691zM89 710h-58l85 113h115z" />
<glyph unicode="&#xce;" horiz-adv-x="138" d="M106 0h-73v691h73v-691z" />
<glyph unicode="&#xcf;" horiz-adv-x="138" d="M106 0h-73v691h73v-691zM-40 739q0 17 13 29t30 12t30 -12t13 -29t-13 -29.5t-30 -12.5t-30 12.5t-13 29.5zM85 739q0 17 13 29t30 12t30.5 -12t13.5 -29t-13.5 -29.5t-30.5 -12.5t-30 12.5t-13 29.5z" />
<glyph unicode="&#xd0;" horiz-adv-x="653" d="M34 261v72h64v358h259q51 -1 96 -28t78.5 -73.5t52.5 -109t19 -133.5t-19 -133.5t-52 -109.5t-77.5 -74.5t-95.5 -29.5h-261v261h-64zM171 618v-285h166v-72h-166v-188h45t45 1q25 0 49.5 0.5t48.5 0.5q36 1 67 23t54 58.5t36.5 85.5t13.5 105t-13.5 105t-36.5 85.5 t-55 58t-68 22.5h-186z" />
<glyph unicode="&#xd1;" horiz-adv-x="537" d="M101 691l315 -533v533h73v-691h-66l-315 536v-536h-72v691h65zM323 700q-20 0 -45 7.5t-51 24.5l20 -12q-8 3 -18.5 5t-24.5 2q-13 0 -28.5 -5.5t-32.5 -15.5l-23 60q43 23 84 23q19 0 33 -3.5t26 -7.5q2 -1 4 -1.5t4 -1.5q11 -5 24 -9t28 -4q14 0 30.5 6t32.5 16l21 -60 q-19 -11 -41.5 -17.5t-42.5 -6.5z" />
<glyph unicode="&#xd2;" horiz-adv-x="690" d="M502 548q-32 35 -75 54t-91 19q-50 0 -94 -21.5t-77 -59t-52 -87.5t-19 -108t19 -109t51.5 -89t76.5 -60t95 -22q52 0 96.5 22t77.5 60t51.5 89t18.5 109q0 61 -20.5 113.5t-57.5 89.5zM555 88q-43 -47 -98.5 -72t-120.5 -25q-63 0 -120.5 27t-101 74.5t-69 112.5 t-25.5 140q0 73 25 136.5t67.5 111t100 75t123.5 27.5q68 0 125.5 -27.5t99.5 -74.5t66 -111t24 -137q0 -78 -25 -143t-71 -114zM169 823h117l85 -113h-58z" />
<glyph unicode="&#xd3;" horiz-adv-x="690" d="M502 548q-32 35 -75 54t-91 19q-50 0 -94 -21.5t-77 -59t-52 -87.5t-19 -108t19 -109t51.5 -89t76.5 -60t95 -22q52 0 96.5 22t77.5 60t51.5 89t18.5 109q0 61 -20.5 113.5t-57.5 89.5zM555 88q-43 -47 -98.5 -72t-120.5 -25q-63 0 -120.5 27t-101 74.5t-69 112.5 t-25.5 140q0 73 25 136.5t67.5 111t100 75t123.5 27.5q68 0 125.5 -27.5t99.5 -74.5t66 -111t24 -137q0 -78 -25 -143t-71 -114zM373 710h-58l85 113h115z" />
<glyph unicode="&#xd5;" horiz-adv-x="690" d="M502 548q-32 35 -75 54t-91 19q-50 0 -94 -21.5t-77 -59t-52 -87.5t-19 -108t19 -109t51.5 -89t76.5 -60t95 -22q52 0 96.5 22t77.5 60t51.5 89t18.5 109q0 61 -20.5 113.5t-57.5 89.5zM555 88q-43 -47 -98.5 -72t-120.5 -25q-63 0 -120.5 27t-101 74.5t-69 112.5 t-25.5 140q0 73 25 136.5t67.5 111t100 75t123.5 27.5q68 0 125.5 -27.5t99.5 -74.5t66 -111t24 -137q0 -78 -25 -143t-71 -114zM399 701q-20 0 -45 7.5t-51 24.5l20 -12q-8 3 -18.5 5t-24.5 2q-13 0 -28.5 -5.5t-32.5 -15.5l-23 60q43 23 84 23q19 0 33 -3.5t26 -7.5 q2 -1 4 -1.5t4 -1.5q11 -5 24 -9t28 -4q14 0 30.5 6t32.5 16l21 -60q-19 -11 -41.5 -17.5t-42.5 -6.5z" />
<glyph unicode="&#xd6;" horiz-adv-x="690" d="M502 548q-32 35 -75 54t-91 19q-50 0 -94 -21.5t-77 -59t-52 -87.5t-19 -108t19 -109t51.5 -89t76.5 -60t95 -22q52 0 96.5 22t77.5 60t51.5 89t18.5 109q0 61 -20.5 113.5t-57.5 89.5zM555 88q-43 -47 -98.5 -72t-120.5 -25q-63 0 -120.5 27t-101 74.5t-69 112.5 t-25.5 140q0 73 25 136.5t67.5 111t100 75t123.5 27.5q68 0 125.5 -27.5t99.5 -74.5t66 -111t24 -137q0 -78 -25 -143t-71 -114zM235 740q0 17 13 29t30 12t30 -12t13 -29t-13 -29.5t-30 -12.5t-30 12.5t-13 29.5zM360 740q0 17 13 29t30 12t30.5 -12t13.5 -29t-13.5 -29.5 t-30.5 -12.5t-30 12.5t-13 29.5z" />
<glyph unicode="&#xd7;" horiz-adv-x="367" d="M72 160l-51 50l101 101l-100 100l50 51l101 -100l100 100l51 -50l-101 -101l101 -101l-50 -50l-101 101z" />
<glyph unicode="&#xd8;" horiz-adv-x="690" d="M555 88q-43 -47 -98.5 -72t-120.5 -25q-21 0 -42.5 3.5t-39.5 8.5v-3h-82l12 34q-37 21 -67 53t-51.5 72t-33.5 87t-12 99q0 73 25 136.5t67.5 111t100 75t123.5 27.5q21 0 43.5 -3.5t42.5 -9.5q0 2 2 6q1 2 1 3h74l-11 -37q75 -48 119 -128.5t44 -180.5q0 -78 -25 -143 t-71 -114zM502 548q-11 11 -19.5 19t-19.5 16q-14 -37 -27.5 -73t-27.5 -74q-34 -92 -66 -181.5t-66 -181.5q14 -5 28.5 -6.5t31.5 -1.5q52 0 96.5 22t77.5 60t51.5 89t18.5 109q0 61 -20.5 113.5t-57.5 89.5zM336 621q-50 0 -94 -21.5t-77 -59t-52 -87.5t-19 -108 q0 -79 31 -141.5t84 -99.5q29 77 56 151t55 150q20 54 38 104t38 104q-14 5 -28.5 6.5t-31.5 1.5z" />
<glyph unicode="&#xd9;" horiz-adv-x="598" d="M108 182q4 -23 20 -44t41 -37.5t57.5 -26t68.5 -9.5q34 0 65.5 9.5t56 26t40.5 37.5t19 44v509h73v-510q-2 -39 -22.5 -73.5t-55 -60.5t-80 -41t-96.5 -15q-53 0 -100 15t-82 41t-56.5 60t-24.5 73v511h76v-509zM141 823h117l85 -113h-58z" />
<glyph unicode="&#xda;" horiz-adv-x="598" d="M108 182q4 -23 20 -44t41 -37.5t57.5 -26t68.5 -9.5q34 0 65.5 9.5t56 26t40.5 37.5t19 44v509h73v-510q-2 -39 -22.5 -73.5t-55 -60.5t-80 -41t-96.5 -15q-53 0 -100 15t-82 41t-56.5 60t-24.5 73v511h76v-509zM314 710h-58l85 113h115z" />
<glyph unicode="&#xdc;" horiz-adv-x="598" d="M108 182q4 -23 20 -44t41 -37.5t57.5 -26t68.5 -9.5q34 0 65.5 9.5t56 26t40.5 37.5t19 44v509h73v-510q-2 -39 -22.5 -73.5t-55 -60.5t-80 -41t-96.5 -15q-53 0 -100 15t-82 41t-56.5 60t-24.5 73v511h76v-509zM189 739q0 17 13 29t30 12t30 -12t13 -29t-13 -29.5 t-30 -12.5t-30 12.5t-13 29.5zM314 739q0 17 13 29t30 12t30.5 -12t13.5 -29t-13.5 -29.5t-30.5 -12.5t-30 12.5t-13 29.5z" />
<glyph unicode="&#xdd;" horiz-adv-x="681" d="M655 691l-286 -382v-309h-74v309q-18 24 -38.5 52t-40.5 54q-24 32 -51.5 68.5t-54.5 72.5t-52.5 71t-47.5 64h95l226 -310l30 40t30 41q41 56 84.5 115t85.5 114h94zM364 710h-58l85 113h115z" />
<glyph unicode="&#xde;" horiz-adv-x="535" d="M123 491q25 11 57 18.5t68 7.5q51 -1 96 -22t78.5 -56.5t52.5 -82.5t19 -100q0 -55 -19 -103.5t-52.5 -84.5t-78.5 -56.5t-96 -20.5q-38 0 -68.5 8t-57.5 19v-205h-71v879h72v-201zM123 105q-1 -8 8.5 -15t27 -12.5t40.5 -9t49 -4.5q35 1 66.5 16t55 41t37 60.5 t13.5 73.5q0 38 -13.5 72t-37 60t-55 41t-66.5 15q-48 0 -84.5 -11t-42.5 -27z" />
<glyph unicode="&#xdf;" horiz-adv-x="520" d="M382 505q0 20 -9 38.5t-25 32.5t-37 23t-46 11h-150v-213h151q24 1 45.5 9.5t37 22.5t24.5 33.5t9 42.5zM115 67v-229h-73v843h224q39 -1 73 -15.5t59.5 -38.5t40.5 -55.5t15 -66.5q0 -46 -20.5 -82t-55.5 -61q42 -26 65.5 -69t23.5 -93q0 -40 -15.5 -75.5t-42.5 -62.5 t-63.5 -43t-79.5 -17h-87zM115 71h151q27 1 50.5 12t41 28.5t27.5 40.5t10 48q0 24 -10.5 46t-29.5 39.5t-46 28t-60 12.5h-134v-255z" />
<glyph unicode="&#xe0;" horiz-adv-x="406" d="M293 19q-21 -14 -46 -21.5t-51 -7.5q-34 0 -64.5 12.5t-53 34t-36 50t-13.5 61.5q0 35 14 64.5t37.5 50.5t55 33t66.5 12h91v3q0 51 -23 86.5t-61 37.5q-26 0 -56.5 -4.5t-63.5 -14.5l-18 70q35 10 69.5 15.5t69.5 5.5q31 -1 58.5 -15t48.5 -37.5t33.5 -55.5t14.5 -68 v-10q-1 -24 -1 -50q-1 -23 -1 -51v-57q0 -26 1.5 -51.5t5 -47.5t9 -39t12.5 -25h-98v19zM293 236h-91q-42 0 -71.5 -24t-29.5 -64q0 -18 7.5 -33t20.5 -26.5t30 -18t37 -6.5t38 6.5t31 18t20.5 26.5t7.5 33v88zM47 632h117l85 -113h-58z" />
<glyph unicode="&#xe1;" horiz-adv-x="406" d="M293 19q-21 -14 -46 -21.5t-51 -7.5q-34 0 -64.5 12.5t-53 34t-36 50t-13.5 61.5q0 35 14 64.5t37.5 50.5t55 33t66.5 12h91v3q0 51 -23 86.5t-61 37.5q-26 0 -56.5 -4.5t-63.5 -14.5l-18 70q35 10 69.5 15.5t69.5 5.5q31 -1 58.5 -15t48.5 -37.5t33.5 -55.5t14.5 -68 v-10q-1 -24 -1 -50q-1 -23 -1 -51v-57q0 -26 1.5 -51.5t5 -47.5t9 -39t12.5 -25h-98v19zM293 236h-91q-42 0 -71.5 -24t-29.5 -64q0 -18 7.5 -33t20.5 -26.5t30 -18t37 -6.5t38 6.5t31 18t20.5 26.5t7.5 33v88zM206 519h-58l85 113h115z" />
<glyph unicode="&#xe2;" horiz-adv-x="406" d="M293 19q-21 -14 -46 -21.5t-51 -7.5q-34 0 -64.5 12.5t-53 34t-36 50t-13.5 61.5q0 35 14 64.5t37.5 50.5t55 33t66.5 12h91v3q0 51 -23 86.5t-61 37.5q-26 0 -56.5 -4.5t-63.5 -14.5l-18 70q35 10 69.5 15.5t69.5 5.5q31 -1 58.5 -15t48.5 -37.5t33.5 -55.5t14.5 -68 v-10q-1 -24 -1 -50q-1 -23 -1 -51v-57q0 -26 1.5 -51.5t5 -47.5t9 -39t12.5 -25h-98v19zM293 236h-91q-42 0 -71.5 -24t-29.5 -64q0 -18 7.5 -33t20.5 -26.5t30 -18t37 -6.5t38 6.5t31 18t20.5 26.5t7.5 33v88zM198 671l124 -123l-47 -47l-77 78l-79 -78l-45 48z" />
<glyph unicode="&#xe3;" horiz-adv-x="406" d="M233 528q-14 0 -28.5 2.5t-26.5 8.5v-1q-15 5 -28 5q-17 0 -37.5 -8t-35.5 -22l-32 57q23 15 50.5 25t53.5 10q17 0 27.5 -2t20.5 -5h-3q1 0 1.5 -0.5t1.5 -0.5q19 -7 32 -7q20 0 41.5 8.5t37.5 22.5l27 -56q-21 -17 -48.5 -27t-53.5 -10zM300 35q-21 -14 -46 -21.5 t-51 -7.5q-34 0 -64.5 12.5t-53 34t-36 50t-13.5 61.5q0 35 14 64.5t37.5 50.5t55 33t66.5 12h91v3q0 51 -23 86.5t-61 37.5q-26 0 -56.5 -4.5t-63.5 -14.5l-18 70q35 10 69.5 15.5t69.5 5.5q31 -1 58.5 -15t48.5 -37.5t33.5 -55.5t14.5 -68v-10q-1 -24 -1 -50 q-1 -23 -1 -51v-57q0 -26 1.5 -51.5t5 -47.5t9 -39t12.5 -25h-98v19zM300 252h-91q-42 0 -71.5 -24t-29.5 -64q0 -18 7.5 -33t20.5 -26.5t30 -18t37 -6.5t38 6.5t31 18t20.5 26.5t7.5 33v88z" />
<glyph unicode="&#xe4;" horiz-adv-x="406" d="M100 626q0 17 12.5 29t31.5 12q17 0 30 -12t13 -29t-13 -29.5t-30 -12.5q-19 0 -31.5 12.5t-12.5 29.5zM226 626q0 17 13 29t30 12t30 -12t13 -29t-13 -29.5t-30 -12.5t-30 12.5t-13 29.5zM300 35q-21 -14 -46 -21.5t-51 -7.5q-34 0 -64.5 12.5t-53 34t-36 50t-13.5 61.5 q0 35 14 64.5t37.5 50.5t55 33t66.5 12h91v3q0 51 -23 86.5t-61 37.5q-26 0 -56.5 -4.5t-63.5 -14.5l-18 70q35 10 69.5 15.5t69.5 5.5q31 -1 58.5 -15t48.5 -37.5t33.5 -55.5t14.5 -68v-10q-1 -24 -1 -50q-1 -23 -1 -51v-57q0 -26 1.5 -51.5t5 -47.5t9 -39t12.5 -25h-98v19 zM300 252h-91q-42 0 -71.5 -24t-29.5 -64q0 -18 7.5 -33t20.5 -26.5t30 -18t37 -6.5t38 6.5t31 18t20.5 26.5t7.5 33v88z" />
<glyph unicode="&#xe6;" horiz-adv-x="743" d="M298 19q-21 -14 -45.5 -21.5t-51.5 -7.5q-34 0 -64.5 12.5t-53 34t-36 50t-13.5 61.5t13.5 62.5t36 51t53 34t64.5 12.5h94q0 1 0.5 2.5t0.5 3.5q2 8 2 9q-1 48 -25.5 79t-58.5 33q-57 0 -120 -19l-18 70q35 10 70 15.5t69 5.5q40 -2 73.5 -24t54.5 -59q29 39 67.5 61.5 t82.5 22.5q42 0 79 -19.5t64 -53.5t42.5 -80t15.5 -100v-39h-326v-23q7 -27 20.5 -50.5t31.5 -41.5t39 -28t44 -10q15 0 32 3.5t34 9.5t33.5 13t29.5 13l29 -63q-31 -18 -64.5 -29t-67.5 -18q-6 -1 -12.5 -1h-13.5q-36 0 -69.5 14t-60.5 37q4 -11 11.5 -21.5t21.5 -20.5 h-108v19zM621 286q-5 32 -16.5 59.5t-28 47.5t-38 31t-45.5 11t-45.5 -11t-38.5 -31t-27.5 -47t-12.5 -60h252zM290 236h-89q-40 0 -67 -25.5t-27 -62.5q0 -18 7 -33t20 -26.5t30 -18t37 -6.5t37.5 6.5t31 18t21 26.5t7.5 33v26q-6 26 -8 58v4z" />
<glyph unicode="&#xe7;" horiz-adv-x="493" d="M292 -8q15 -7 30 -23.5t15 -38.5q0 -17 -14.5 -36t-49.5 -41l-71 56q10 1 22 3t22.5 4.5t18 5.5t7.5 6q0 11 -11 14t-19 3q-1 0 -2 -0.5t-3 -0.5h-21l2 53q-41 9 -76 32t-60.5 56t-39.5 75t-14 90q0 52 19 99t51.5 82t76.5 55.5t95 20.5t98.5 -24.5t85.5 -66.5l-50 -50 q-29 32 -64 50.5t-70 18.5t-66 -14.5t-54 -39.5t-36.5 -59t-13.5 -72q0 -39 13.5 -72.5t36.5 -59t54 -40t66 -14.5q34 0 67.5 17t61.5 47l52 -49q-32 -35 -73.5 -58t-85.5 -29z" />
<glyph unicode="&#xe8;" horiz-adv-x="456" d="M233 63q14 0 31 3.5t34 9.5t33.5 13t30.5 13l28 -63q-32 -18 -65 -29.5t-66 -17.5q-6 -1 -13.5 -1h-12.5q-42 0 -79.5 18.5t-67 51t-47.5 76.5t-21 94v19q0 53 16.5 100t44 82t64.5 55.5t79 20.5q43 0 79.5 -19.5t63.5 -53.5t42 -80t15 -100v-39h-329q4 -33 16 -61 t30.5 -48t42.5 -32t51 -12zM350 286q-4 32 -15.5 59.5t-28.5 47.5t-38.5 31t-45.5 11q-23 0 -43.5 -11.5t-37.5 -32t-29 -47.5t-17 -58h255zM76 632h117l85 -113h-58z" />
<glyph unicode="&#xe9;" horiz-adv-x="456" d="M233 63q14 0 31 3.5t34 9.5t33.5 13t30.5 13l28 -63q-32 -18 -65 -29.5t-66 -17.5q-6 -1 -13.5 -1h-12.5q-42 0 -79.5 18.5t-67 51t-47.5 76.5t-21 94v19q0 53 16.5 100t44 82t64.5 55.5t79 20.5q43 0 79.5 -19.5t63.5 -53.5t42 -80t15 -100v-39h-329q4 -33 16 -61 t30.5 -48t42.5 -32t51 -12zM350 286q-4 32 -15.5 59.5t-28.5 47.5t-38.5 31t-45.5 11q-23 0 -43.5 -11.5t-37.5 -32t-29 -47.5t-17 -58h255zM235 519h-58l85 113h115z" />
<glyph unicode="&#xea;" horiz-adv-x="456" d="M233 63q14 0 31 3.5t34 9.5t33.5 13t30.5 13l28 -63q-32 -18 -65 -29.5t-66 -17.5q-6 -1 -13.5 -1h-12.5q-42 0 -79.5 18.5t-67 51t-47.5 76.5t-21 94v19q0 53 16.5 100t44 82t64.5 55.5t79 20.5q43 0 79.5 -19.5t63.5 -53.5t42 -80t15 -100v-39h-329q4 -33 16 -61 t30.5 -48t42.5 -32t51 -12zM350 286q-4 32 -15.5 59.5t-28.5 47.5t-38.5 31t-45.5 11q-23 0 -43.5 -11.5t-37.5 -32t-29 -47.5t-17 -58h255zM223 671l124 -123l-47 -47l-77 78l-79 -78l-45 48z" />
<glyph unicode="&#xeb;" horiz-adv-x="456" d="M233 63q14 0 31 3.5t34 9.5t33.5 13t30.5 13l28 -63q-32 -18 -65 -29.5t-66 -17.5q-6 -1 -13.5 -1h-12.5q-42 0 -79.5 18.5t-67 51t-47.5 76.5t-21 94v19q0 53 16.5 100t44 82t64.5 55.5t79 20.5q43 0 79.5 -19.5t63.5 -53.5t42 -80t15 -100v-39h-329q4 -33 16 -61 t30.5 -48t42.5 -32t51 -12zM350 286q-4 32 -15.5 59.5t-28.5 47.5t-38.5 31t-45.5 11q-23 0 -43.5 -11.5t-37.5 -32t-29 -47.5t-17 -58h255zM118 626q0 17 13 29t30 12t30 -12t13 -29t-13 -29.5t-30 -12.5t-30 12.5t-13 29.5zM243 626q0 17 13 29t30 12t30.5 -12t13.5 -29 t-13.5 -29.5t-30.5 -12.5t-30 12.5t-13 29.5z" />
<glyph unicode="&#xec;" horiz-adv-x="211" d="M77 501h70v-501h-70v501zM-26 648h117l85 -113h-58z" />
<glyph unicode="&#xed;" horiz-adv-x="211" d="M49 501h72v-501h-72v501zM82 535h-58l85 113h115z" />
<glyph unicode="&#xee;" horiz-adv-x="177" d="M49 501h70v-501h-70v501zM90 687l124 -123l-47 -47l-77 78l-79 -78l-45 48z" />
<glyph unicode="&#xef;" horiz-adv-x="177" d="M49 501h70v-501h-70v501zM-2 626q0 17 13 29t30 12t30 -12t13 -29t-13 -29.5t-30 -12.5t-30 12.5t-13 29.5zM86 626q0 17 12.5 29t31.5 12q17 0 30 -12t13 -29t-13 -29.5t-30 -12.5q-19 0 -31.5 12.5t-12.5 29.5z" />
<glyph unicode="&#xf0;" horiz-adv-x="489" d="M29 474q0 43 16.5 81.5t45 67t67 45.5t82.5 17q43 0 80 -16.5t65.5 -45t46.5 -66t21 -79.5q2 -30 2.5 -65.5t0.5 -67.5v-25q0 -39 -2.5 -75.5t-9.5 -70.5q-8 -40 -28 -73.5t-50 -57.5t-67 -37t-77 -13q-50 0 -97.5 26.5t-81.5 69.5l64 53q24 -36 56.5 -55.5t65.5 -19.5 q57 0 96.5 35.5t51.5 87.5v-1q4 31 6.5 65t3.5 69q-29 -26 -67 -42t-82 -16q-42 0 -79.5 15.5t-66 43t-46 64.5t-17.5 80v6zM241 612q-30 0 -56 -11.5t-45.5 -31t-30.5 -45.5t-11 -54q1 -28 13 -52.5t30.5 -42.5t43.5 -28.5t53 -10.5q30 0 55.5 11t45 30t30.5 44.5t11 54.5 q0 28 -11.5 52.5t-30.5 43t-44.5 29.5t-52.5 11z" />
<glyph unicode="&#xf1;" horiz-adv-x="433" d="M245 568q-36 0 -58 11q-13 5 -29 5q-17 0 -37 -8.5t-37 -19.5l-25 58q20 14 46.5 23t55.5 9q17 0 25.5 -2t14.5 -4q2 -1 5.5 -2t6.5 -3h-1q15 -5 34 -5q17 0 37 8t36 22l30 -58q-23 -16 -50.5 -25t-53.5 -9zM105 481q24 24 51.5 34t63.5 10t67 -14.5t54.5 -40t37.5 -60 t15 -73.5l2 -321h-72v321q0 24 -9 45.5t-24 37t-34.5 24.5t-41.5 9q-19 0 -37 -8.5t-32.5 -23t-25 -33.5t-15.5 -39v-333h-71v442q0 13 -10 30t-18 25h99v-32z" />
<glyph unicode="&#xf2;" horiz-adv-x="527" d="M86 248q0 -38 13 -72t35 -59t51.5 -39.5t63.5 -14.5q33 0 62.5 14.5t51.5 39.5t35 59t13 72q0 39 -13 73t-35 59.5t-51.5 40t-62.5 14.5q-34 0 -63.5 -14.5t-51.5 -40t-35 -59.5t-13 -73zM13 248q0 54 18.5 101t51 82t75.5 55.5t91 20.5q49 0 92 -20.5t74.5 -55.5t50 -82 t18.5 -101q0 -53 -18.5 -100t-50 -82t-74.5 -55.5t-92 -20.5q-48 0 -91 20.5t-75.5 55.5t-51 82t-18.5 100zM112 632h117l85 -113h-58z" />
<glyph unicode="&#xf3;" horiz-adv-x="527" d="M86 248q0 -38 13 -72t35 -59t51.5 -39.5t63.5 -14.5q33 0 62.5 14.5t51.5 39.5t35 59t13 72q0 39 -13 73t-35 59.5t-51.5 40t-62.5 14.5q-34 0 -63.5 -14.5t-51.5 -40t-35 -59.5t-13 -73zM13 248q0 54 18.5 101t51 82t75.5 55.5t91 20.5q49 0 92 -20.5t74.5 -55.5t50 -82 t18.5 -101q0 -53 -18.5 -100t-50 -82t-74.5 -55.5t-92 -20.5q-48 0 -91 20.5t-75.5 55.5t-51 82t-18.5 100zM277 519h-58l85 113h115z" />
<glyph unicode="&#xf4;" horiz-adv-x="513" d="M86 248q0 -38 13 -72t35 -59t51.5 -39.5t63.5 -14.5q33 0 62.5 14.5t51.5 39.5t35 59t13 72q0 39 -13 73t-35 59.5t-51.5 40t-62.5 14.5q-34 0 -63.5 -14.5t-51.5 -40t-35 -59.5t-13 -73zM13 248q0 54 18.5 101t51 82t75.5 55.5t91 20.5q49 0 92 -20.5t74.5 -55.5t50 -82 t18.5 -101q0 -53 -18.5 -100t-50 -82t-74.5 -55.5t-92 -20.5q-48 0 -91 20.5t-75.5 55.5t-51 82t-18.5 100zM252 671l124 -123l-47 -47l-77 78l-79 -78l-45 48z" />
<glyph unicode="&#xf5;" horiz-adv-x="513" d="M86 248q0 -38 13 -72t35 -59t51.5 -39.5t63.5 -14.5q33 0 62.5 14.5t51.5 39.5t35 59t13 72q0 39 -13 73t-35 59.5t-51.5 40t-62.5 14.5q-34 0 -63.5 -14.5t-51.5 -40t-35 -59.5t-13 -73zM13 248q0 54 18.5 101t51 82t75.5 55.5t91 20.5q49 0 92 -20.5t74.5 -55.5t50 -82 t18.5 -101q0 -53 -18.5 -100t-50 -82t-74.5 -55.5t-92 -20.5q-48 0 -91 20.5t-75.5 55.5t-51 82t-18.5 100zM317 542q-20 0 -45 7.5t-51 24.5l20 -12q-8 3 -18.5 5t-24.5 2q-13 0 -28.5 -5.5t-32.5 -15.5l-23 60q43 23 84 23q19 0 33 -3.5t26 -7.5q2 -1 4 -1.5t4 -1.5 q11 -5 24 -9t28 -4q14 0 30.5 6t32.5 16l21 -60q-19 -11 -41.5 -17.5t-42.5 -6.5z" />
<glyph unicode="&#xf6;" horiz-adv-x="527" d="M86 248q0 -38 13 -72t35 -59t51.5 -39.5t63.5 -14.5q33 0 62.5 14.5t51.5 39.5t35 59t13 72q0 39 -13 73t-35 59.5t-51.5 40t-62.5 14.5q-34 0 -63.5 -14.5t-51.5 -40t-35 -59.5t-13 -73zM13 248q0 54 18.5 101t51 82t75.5 55.5t91 20.5q49 0 92 -20.5t74.5 -55.5t50 -82 t18.5 -101q0 -53 -18.5 -100t-50 -82t-74.5 -55.5t-92 -20.5q-48 0 -91 20.5t-75.5 55.5t-51 82t-18.5 100zM159 626q0 17 13 29t30 12t30 -12t13 -29t-13 -29.5t-30 -12.5t-30 12.5t-13 29.5zM284 626q0 17 13 29t30 12t30.5 -12t13.5 -29t-13.5 -29.5t-30.5 -12.5 t-30 12.5t-13 29.5z" />
<glyph unicode="&#xf7;" horiz-adv-x="425" d="M157 224h93v-93h-93v93zM157 455h93v-93h-93v93zM31 272v72h356v-72h-356z" />
<glyph unicode="&#xf8;" horiz-adv-x="513" d="M13 248q0 54 18.5 101t51 82t75.5 55.5t91 20.5q51 0 97.5 -25t83.5 -67l-56 -49q-28 32 -60.5 50.5t-64.5 18.5q-34 0 -63.5 -14.5t-51.5 -40t-35 -59.5t-13 -73q0 -25 6 -51t20 -51l-55 -49q-20 38 -32 75.5t-12 75.5zM411 248q0 57 -37 116l57 48q24 -38 38.5 -80 t14.5 -84q0 -53 -18.5 -100t-50 -82t-74.5 -55.5t-92 -20.5q-54 0 -103 28t-86 76l53 49q27 -37 62.5 -58.5t73.5 -21.5q33 0 62.5 14.5t51.5 39.5t35 59t13 72z" />
<glyph unicode="&#xf9;" horiz-adv-x="450" d="M325 36q-23 -21 -51.5 -33t-62.5 -12q-35 0 -65.5 14.5t-54 39t-37.5 58t-15 72.5l-3 3v321h71v-314l1 -5q1 -23 10 -44t24 -37t34.5 -25t41.5 -9q19 0 36.5 9t32 23.5t24.5 33t14 38.5v332h72v-439q0 -15 9.5 -34t18.5 -28h-100v36zM75 632h117l85 -113h-58z" />
<glyph unicode="&#xfa;" horiz-adv-x="450" d="M325 36q-23 -21 -51.5 -33t-62.5 -12q-35 0 -65.5 14.5t-54 39t-37.5 58t-15 72.5l-3 3v321h71v-314l1 -5q1 -23 10 -44t24 -37t34.5 -25t41.5 -9q19 0 36.5 9t32 23.5t24.5 33t14 38.5v332h72v-439q0 -15 9.5 -34t18.5 -28h-100v36zM224 519h-58l85 113h115z" />
<glyph unicode="&#xfb;" horiz-adv-x="450" d="M325 36q-23 -21 -51.5 -33t-62.5 -12q-35 0 -65.5 14.5t-54 39t-37.5 58t-15 72.5l-3 3v321h71v-314l1 -5q1 -23 10 -44t24 -37t34.5 -25t41.5 -9q19 0 36.5 9t32 23.5t24.5 33t14 38.5v332h72v-439q0 -15 9.5 -34t18.5 -28h-100v36zM220 671l124 -123l-47 -47l-77 78 l-79 -78l-45 48z" />
<glyph unicode="&#xfc;" horiz-adv-x="450" d="M325 36q-23 -21 -51.5 -33t-62.5 -12q-35 0 -65.5 14.5t-54 39t-37.5 58t-15 72.5l-3 3v321h71v-314l1 -5q1 -23 10 -44t24 -37t34.5 -25t41.5 -9q19 0 36.5 9t32 23.5t24.5 33t14 38.5v332h72v-439q0 -15 9.5 -34t18.5 -28h-100v36zM115 626q0 17 13 29t30 12t30 -12 t13 -29t-13 -29.5t-30 -12.5t-30 12.5t-13 29.5zM240 626q0 17 13 29t30 12t30.5 -12t13.5 -29t-13.5 -29.5t-30.5 -12.5t-30 12.5t-13 29.5z" />
<glyph unicode="&#xfd;" horiz-adv-x="535" d="M51 -97q14 -15 24.5 -17.5t18.5 -2.5q29 0 56.5 19.5t41.5 57.5q5 12 9 23t9 23q5 11 8.5 20.5t8.5 20.5q-7 17 -14 34.5t-13 34.5q-18 43 -39 94t-42 103t-41.5 102t-37.5 92h77l146 -368q23 58 46.5 117.5t47.5 119.5q12 32 25.5 66.5t26.5 64.5h77l-188 -464 q-5 -11 -8.5 -22t-8.5 -22q-5 -15 -12.5 -31.5t-12.5 -33.5q-11 -29 -29 -51.5t-40 -38.5t-46 -24t-48 -8q-23 0 -53 8zM287 519h-58l85 113h115z" />
<glyph unicode="&#xfe;" horiz-adv-x="517" d="M124 484q25 12 55 18.5t67 6.5q51 -1 95 -22t76.5 -55.5t51.5 -81t19 -98.5q0 -54 -19 -102t-51.5 -83t-76.5 -55.5t-95 -20.5q-38 0 -67.5 8t-55.5 19v-202h-72v866h73v-198zM124 103q-1 -8 8.5 -14.5t26 -12t39 -8.5t48.5 -4q34 1 65 15.5t54.5 40t37 59t13.5 72.5 q0 37 -13.5 70.5t-37 59t-54.5 40.5t-65 15q-47 0 -82 -11.5t-43 -26.5z" />
<glyph unicode="&#xff;" horiz-adv-x="535" d="M51 -97q14 -15 24.5 -17.5t18.5 -2.5q29 0 56.5 19.5t41.5 57.5q5 12 9 23t9 23q5 11 8.5 20.5t8.5 20.5q-7 17 -14 34.5t-13 34.5q-18 43 -39 94t-42 103t-41.5 102t-37.5 92h77l146 -368q23 58 46.5 117.5t47.5 119.5q12 32 25.5 66.5t26.5 64.5h77l-188 -464 q-5 -11 -8.5 -22t-8.5 -22q-5 -15 -12.5 -31.5t-12.5 -33.5q-11 -29 -29 -51.5t-40 -38.5t-46 -24t-48 -8q-23 0 -53 8zM168 626q0 17 13 29t30 12t30 -12t13 -29t-13 -29.5t-30 -12.5t-30 12.5t-13 29.5zM293 626q0 17 13 29t30 12t30.5 -12t13.5 -29t-13.5 -29.5 t-30.5 -12.5t-30 12.5t-13 29.5z" />
<glyph unicode="&#x131;" horiz-adv-x="343" d="M22 48v72h171v505h72v-577h-243z" />
<glyph unicode="&#x141;" horiz-adv-x="570" d="M281 658v33h62v-33h-62zM104 0h-78l125 336v355h73v-152q3 9 6 17l6 16v-1q11 29 22 60.5t21 59.5h78l-133 -366v-252h320v-73h-393v123z" />
<glyph unicode="&#x142;" horiz-adv-x="380" d="M151 681h72v-195q8 13 16 27t16 27q8 14 17 29.5t17 29.5h83l-149 -260v-339h-72v212q-9 -14 -18 -30t-18 -31q-5 -9 -12 -21t-13 -22h-88l149 254v319z" />
<glyph unicode="&#x152;" horiz-adv-x="1056" d="M559 88q-43 -47 -98.5 -72t-120.5 -25q-63 0 -120 27t-100.5 74.5t-69 112.5t-25.5 140q0 73 24.5 136.5t67.5 111t100.5 75t122.5 27.5q79 0 139.5 -30t104.5 -93v119h413v-71h-341v-217h291v-73h-291v-257h341v-73h-413v118q-13 -18 -25 -30zM507 548q-32 35 -75 54 t-92 19q-50 0 -94 -21.5t-76.5 -59t-51.5 -87.5t-19 -108t18.5 -109t51 -89t76.5 -60t95 -22q48 0 89.5 20.5t74 55.5t53.5 81.5t27 98.5v47q-5 55 -25 100.5t-52 79.5z" />
<glyph unicode="&#x153;" horiz-adv-x="880" d="M637 63q15 0 32 3.5t34 9.5t33.5 13t29.5 13l29 -63q-31 -18 -64 -29t-68 -18q-5 -1 -12 -1h-14q-59 0 -105.5 33.5t-75.5 89.5q-32 -55 -84.5 -89.5t-115.5 -34.5q-49 0 -92 20.5t-75.5 55.5t-51 82t-18.5 100q0 54 18.5 101t51 82t75.5 55.5t92 20.5q61 0 113.5 -34 t84.5 -87q26 57 71 89.5t102 32.5q42 0 79 -19.5t64 -53.5t42.5 -80t15.5 -100v-39h-331q4 -33 16.5 -61t31 -48t42 -32t50.5 -12zM91 248q0 -38 13 -72t35.5 -59t52.5 -39.5t64 -14.5q33 0 62.5 14.5t51 39.5t34.5 59t13 72q0 39 -13 73t-34.5 59.5t-51 40t-62.5 14.5 q-34 0 -64 -14.5t-52.5 -40t-35.5 -59.5t-13 -73zM755 286q-5 32 -16.5 59.5t-28 47.5t-38 31t-45.5 11q-23 0 -43.5 -11.5t-37.5 -32t-29 -47.5t-18 -58h256z" />
<glyph unicode="&#x160;" horiz-adv-x="485" d="M86 146q25 -38 62.5 -60t83.5 -22q27 0 52 9t44 24t30 36t11 45q0 23 -10.5 44t-28.5 38t-42 29t-51 16q-43 6 -80 23.5t-64.5 44t-43.5 59.5t-16 70q0 41 17 76.5t46.5 61t69.5 40t85 14.5q60 0 108 -23.5t87 -66.5l-60 -48q-26 32 -60 50t-75 18q-28 0 -54 -9.5 t-46 -25.5t-32 -37.5t-12 -45.5t10.5 -46.5t29 -40t43.5 -29t54 -13.5q43 -5 79.5 -23t63.5 -44t42 -59.5t15 -69.5q0 -40 -17 -74.5t-46 -60t-68 -40.5t-83 -15q-63 0 -116 30.5t-85 78.5zM239 692l-125 124l47 46l78 -78l78 78l45 -47z" />
<glyph unicode="&#x161;" horiz-adv-x="417" d="M325 388q-23 22 -54 34t-63 12q-41 0 -68.5 -17.5t-27.5 -46.5q0 -28 28.5 -51.5t73.5 -31.5q34 -5 63.5 -19.5t51 -35.5t34 -47t12.5 -53q0 -31 -13.5 -57t-36.5 -44.5t-54 -28.5t-65 -10q-45 0 -92.5 21t-78.5 59l54 42q22 -22 52.5 -36t61.5 -14q21 0 39 5t32 14 t22 21.5t8 27.5q0 13 -9 26.5t-23 25t-33 21t-38 14.5q-33 5 -62 20t-51.5 36t-35.5 45.5t-13 50.5q0 30 14 55t37.5 43t55 27.5t66.5 9.5q48 0 93.5 -21.5t77.5 -54.5zM205 501l-125 124l47 46l78 -78l78 78l45 -47z" />
<glyph unicode="&#x178;" horiz-adv-x="681" d="M655 691l-286 -382v-309h-74v309q-18 24 -38.5 52t-40.5 54q-24 32 -51.5 68.5t-54.5 72.5t-52.5 71t-47.5 64h95l226 -310l30 40t30 41q41 56 84.5 115t85.5 114h94zM230 729q0 17 13 29t30 12t30 -12t13 -29t-13 -29.5t-30 -12.5t-30 12.5t-13 29.5zM355 729 q0 17 13 29t30 12t30.5 -12t13.5 -29t-13.5 -29.5t-30.5 -12.5t-30 12.5t-13 29.5z" />
<glyph unicode="&#x17d;" horiz-adv-x="548" d="M142 73h337v-73h-468l385 618h-345v73h474zM270 692l-125 124l47 46l78 -78l78 78l45 -47z" />
<glyph unicode="&#x17e;" horiz-adv-x="452" d="M34 63l276 366h-273v72h374v-62l-276 -367h276v-72h-377v63zM222 501l-125 124l47 46l78 -78l78 78l45 -47z" />
<glyph unicode="&#x192;" horiz-adv-x="328" d="M292 607q-19 5 -28.5 5.5t-16.5 0.5q-34 -2 -58 -34t-24 -80v-8h123v-73h-123v-418h-69v418h-71v73h70q-1 0 -1 1v2v3v13q2 35 15 67t33.5 56t47.5 38t57 14q11 0 24.5 -0.5t42.5 -4.5z" />
<glyph unicode="&#x2c6;" horiz-adv-x="268" d="M135 671l124 -123l-47 -47l-77 78l-79 -78l-45 48z" />
<glyph unicode="&#x2c7;" horiz-adv-x="276" d="M136 501l-125 124l47 46l78 -78l78 78l45 -47z" />
<glyph unicode="&#x2d9;" horiz-adv-x="148" d="M26 646h93v-93h-93v93z" />
<glyph unicode="&#x2dc;" horiz-adv-x="334" d="M220 542q-20 0 -45 7.5t-51 24.5l20 -12q-8 3 -18.5 5t-24.5 2q-13 0 -28.5 -5.5t-32.5 -15.5l-23 60q43 23 84 23q19 0 33 -3.5t26 -7.5q2 -1 4 -1.5t4 -1.5q11 -5 24 -9t28 -4q14 0 30.5 6t32.5 16l21 -60q-19 -11 -41.5 -17.5t-42.5 -6.5z" />
<glyph unicode="&#x2013;" horiz-adv-x="416" d="M30 256v72h356v-72h-356z" />
<glyph unicode="&#x2014;" horiz-adv-x="532" d="M32 256v72h463v-72h-463z" />
<glyph unicode="&#x2018;" horiz-adv-x="150" d="M122 528l-70 -31l-34 76l52 112l33 -16l-10 -78z" />
<glyph unicode="&#x2019;" horiz-adv-x="159" d="M41 675l77 6l9 -80l-86 -92l-25 25l33 70z" />
<glyph unicode="&#x201a;" horiz-adv-x="172" d="M59 93h77v-84l-96 -83l-20 32l39 63v72z" />
<glyph unicode="&#x201c;" horiz-adv-x="218" d="M166 604q7 -14 12.5 -27t12.5 -27q1 -2 3.5 -8.5t3.5 -8.5l-23 -24l-86 92l8 80l78 -6zM97 604q7 -14 13 -27t13 -27q0 -2 2.5 -8.5t3.5 -8.5l-23 -24l-86 92l9 80l77 -6z" />
<glyph unicode="&#x201d;" horiz-adv-x="237" d="M41 675l78 6l8 -80l-86 -92l-24 25l33 70zM110 675l77 6l9 -80l-86 -92l-24 25l33 70z" />
<glyph unicode="&#x201e;" horiz-adv-x="231" d="M48 94h78v-81l-95 -85l-19 31l38 64zM120 94h76v-84l-96 -84l-19 32l39 64v72z" />
<glyph unicode="&#x2020;" horiz-adv-x="486" d="M32 524v57h176v124h57v-124h185v-57h-185v-523h-57v523h-176z" />
<glyph unicode="&#x2021;" horiz-adv-x="408" d="M21 468h347v-74h-347v74zM21 311h347v-74h-347v74zM156 0v681h74v-681h-74z" />
<glyph unicode="&#x2022;" horiz-adv-x="209" d="M29 376q0 15 6 28.5t16.5 24t24 16.5t28.5 6t28.5 -6t24 -16.5t16.5 -24t6 -28.5q0 -14 -6 -27t-16.5 -23t-24 -16t-28.5 -6t-28.5 6t-24 16t-16.5 23t-6 27z" />
<glyph unicode="&#x2026;" horiz-adv-x="435" d="M31 93h92v-93h-92v93zM167 93h92v-93h-92v93zM303 93h92v-93h-92v93z" />
<glyph unicode="&#x2030;" horiz-adv-x="833" />
<glyph unicode="&#x2039;" horiz-adv-x="352" d="M279 502l51 -50l-201 -203q43 -45 93 -93q26 -26 54.5 -54t53.5 -52l-50 -52l-253 251z" />
<glyph unicode="&#x203a;" horiz-adv-x="343" d="M330 249l-252 -251l-51 52l203 199q-49 49 -101 101.5t-102 101.5l52 50z" />
<glyph unicode="&#x2044;" horiz-adv-x="382" d="M102 0h-76l249 681h76z" />
<glyph unicode="&#x20ac;" horiz-adv-x="745" d="M702 112q-51 -54 -115 -87.5t-137 -33.5q-57 0 -108 19t-92 52.5t-70 80t-43 102.5h-103v72h91q-1 5 -0.5 11t0.5 8q0 10 0.5 19t1.5 17v2h-93v72h107q16 52 46.5 96t71 76t89.5 49.5t102 17.5q73 0 137 -33.5t115 -87.5l-51 -52q-43 46 -93 72.5t-108 26.5 q-38 0 -74 -12.5t-66 -34.5t-54 -52t-38 -66h314v-72h-332q-2 -9 -2 -18v-20v-5.5t1 -8.5v-5h333v-72h-317q13 -38 37 -71t55 -57t67.5 -38t75.5 -14q57 0 107 27.5t93 77.5z" />
<glyph unicode="&#x2122;" horiz-adv-x="417" d="M137 450h-62v163h-56v60h173v-60h-55v-163zM362 673v-223h-61v89q-4 -8 -8 -15t-6 -12h-35l-13 22v-84h-62v223h50l43 -71q9 16 20 33q2 2 4.5 6.5t4.5 9.5q3 5 7.5 11.5t6.5 10.5h49z" />
<glyph unicode="&#x2212;" horiz-adv-x="417" d="M30 256v72h356v-72h-356z" />
<glyph unicode="&#x25fc;" horiz-adv-x="500" d="M0 500h500v-500h-500v500z" />
<glyph unicode="&#xfb01;" horiz-adv-x="505" d="M292 607q-19 5 -28.5 5.5t-16.5 0.5q-34 -2 -58 -34t-24 -80v-8h122v-491h-70v418h-52v-418h-69v418h-71v73h70q-1 0 -1 1v2v3v13q2 35 15 67t33.5 56t47.5 38t57 14q11 0 24.5 -0.5t42.5 -4.5z" />
<glyph unicode="&#xfb02;" horiz-adv-x="490" d="M309 685v-685h-74v418h-70v-418h-69v418h-72v73h71q-1 0 -1 1v2v3v13q1 36 14 68t33.5 55.5t47.5 37t58 14.5h62zM165 491h70v121q-29 -7 -49.5 -39t-20.5 -74v-8zM247 613h28l-40 40v-30z" />
<glyph horiz-adv-x="478" d="M390 370q-27 32 -62 52t-72 20q-35 0 -66.5 -15t-54.5 -40.5t-36.5 -60t-13.5 -73.5t13.5 -73.5t36.5 -60t54.5 -40.5t66.5 -15t68.5 18.5t62.5 50.5l54 -51q-40 -42 -86 -66.5t-99 -24.5q-50 0 -94 21t-77.5 56.5t-53 83t-19.5 101.5t19.5 101.5t53 83.5t77.5 56.5 t94 20.5q54 0 102 -25.5t85 -65.5zM219 577h77v-649h-77v649z" />
</font>
</defs>
</svg>
